G04*
G04 #@! TF.GenerationSoftware,Altium Limited,Altium Designer,22.0.2 (36)*
G04*
G04 Layer_Color=128*
%FSLAX25Y25*%
%MOIN*%
G70*
G04*
G04 #@! TF.SameCoordinates,D467B77E-6E5F-44E5-9B52-D7AE6B4A5D67*
G04*
G04*
G04 #@! TF.FilePolarity,Positive*
G04*
G01*
G75*
%ADD90C,0.00200*%
D90*
X51945Y215724D02*
X48402D01*
X50173Y213953D02*
Y217496D01*
X51945Y225724D02*
X48402D01*
X50173Y223953D02*
Y227496D01*
X51945Y235724D02*
X48402D01*
X50173Y233953D02*
Y237496D01*
X51945Y245724D02*
X48402D01*
X50173Y243953D02*
Y247496D01*
X51945Y255724D02*
X48402D01*
X50173Y253953D02*
Y257496D01*
X51945Y265724D02*
X48402D01*
X50173Y263953D02*
Y267496D01*
X51945Y275724D02*
X48402D01*
X50173Y273953D02*
Y277496D01*
X51945Y285724D02*
X48402D01*
X50173Y283953D02*
Y287496D01*
X111945Y215724D02*
X108402D01*
X110173Y213953D02*
Y217496D01*
X111945Y225724D02*
X108402D01*
X110173Y223953D02*
Y227496D01*
X111945Y235724D02*
X108402D01*
X110173Y233953D02*
Y237496D01*
X111945Y245724D02*
X108402D01*
X110173Y243953D02*
Y247496D01*
X111945Y255724D02*
X108402D01*
X110173Y253953D02*
Y257496D01*
X111945Y265724D02*
X108402D01*
X110173Y263953D02*
Y267496D01*
X111945Y275724D02*
X108402D01*
X110173Y273953D02*
Y277496D01*
X111945Y285724D02*
X108402D01*
X110173Y283953D02*
Y287496D01*
X326839Y188976D02*
X323689D01*
X325264Y187402D02*
Y190551D01*
X346524Y188976D02*
X343374D01*
X344949Y187402D02*
Y190551D01*
X355904Y275452D02*
X352754D01*
X354329Y273877D02*
Y277027D01*
X346061Y275452D02*
X342912D01*
X344487Y273877D02*
Y277027D01*
X-362Y111882D02*
X-3118D01*
X-1740Y110504D02*
Y113260D01*
X39638Y111882D02*
X36882D01*
X38260Y110504D02*
Y113260D01*
X26767Y60824D02*
X18105D01*
X22436Y56493D02*
Y65154D01*
X72830Y60824D02*
X64169D01*
X68499Y56493D02*
Y65154D01*
X37239Y88383D02*
X33696D01*
X35468Y86611D02*
Y90154D01*
X57239Y88383D02*
X53696D01*
X55468Y86611D02*
Y90154D01*
X37239Y31296D02*
X33696D01*
X35468Y29524D02*
Y33068D01*
X47239Y31296D02*
X43696D01*
X45468Y29524D02*
Y33068D01*
X57239Y31296D02*
X53696D01*
X55468Y29524D02*
Y33068D01*
X266935Y55382D02*
X263785D01*
X265360Y53807D02*
Y56957D01*
X256935Y55382D02*
X253785D01*
X255360Y53807D02*
Y56957D01*
X286757Y91050D02*
X283213D01*
X284985Y89278D02*
Y92821D01*
X296757Y91050D02*
X293213D01*
X294985Y89278D02*
Y92821D01*
X306757Y91050D02*
X303213D01*
X304985Y89278D02*
Y92821D01*
X310925Y352382D02*
X306594D01*
X308760Y350217D02*
Y354547D01*
X310925Y302382D02*
X306594D01*
X308760Y300217D02*
Y304547D01*
X109360Y346882D02*
X106160D01*
X107760Y345282D02*
Y348482D01*
X99360Y346882D02*
X96160D01*
X97760Y345282D02*
Y348482D01*
X89360Y346882D02*
X86160D01*
X87760Y345282D02*
Y348482D01*
X79360Y346882D02*
X76160D01*
X77760Y345282D02*
Y348482D01*
X18360Y346882D02*
X15160D01*
X16760Y345282D02*
Y348482D01*
X28360Y346882D02*
X25160D01*
X26760Y345282D02*
Y348482D01*
X38360Y346882D02*
X35160D01*
X36760Y345282D02*
Y348482D01*
X48360Y346882D02*
X45160D01*
X46760Y345282D02*
Y348482D01*
X262531Y346882D02*
X258988D01*
X260760Y345110D02*
Y348654D01*
X282531Y346882D02*
X278988D01*
X280760Y345110D02*
Y348654D01*
X272532Y346882D02*
X268988D01*
X270760Y345110D02*
Y348654D01*
X252532Y346882D02*
X248988D01*
X250760Y345110D02*
Y348654D01*
X288638Y332382D02*
X285882D01*
X287260Y331004D02*
Y333760D01*
X248638Y332382D02*
X245882D01*
X247260Y331004D02*
Y333760D01*
X288638Y321382D02*
X285882D01*
X287260Y320004D02*
Y322760D01*
X248638Y321382D02*
X245882D01*
X247260Y320004D02*
Y322760D01*
X288638Y310382D02*
X285882D01*
X287260Y309004D02*
Y311760D01*
X248638Y310382D02*
X245882D01*
X247260Y309004D02*
Y311760D01*
X288638Y299382D02*
X285882D01*
X287260Y298004D02*
Y300760D01*
X248638Y299382D02*
X245882D01*
X247260Y298004D02*
Y300760D01*
X238059Y207008D02*
X235303D01*
X236681Y205630D02*
Y208386D01*
X238059Y167008D02*
X235303D01*
X236681Y165630D02*
Y168386D01*
X281287Y261811D02*
X277744D01*
X279516Y260039D02*
Y263583D01*
X301287Y261811D02*
X297744D01*
X299516Y260039D02*
Y263583D01*
X331287Y261811D02*
X327744D01*
X329516Y260039D02*
Y263583D01*
X321287Y261811D02*
X317744D01*
X319516Y260039D02*
Y263583D01*
X311287Y261811D02*
X307744D01*
X309516Y260039D02*
Y263583D01*
X291287Y261811D02*
X287744D01*
X289516Y260039D02*
Y263583D01*
X271287Y261811D02*
X267744D01*
X269516Y260039D02*
Y263583D01*
X349476Y123150D02*
X339240D01*
X344358Y118032D02*
Y128268D01*
X259791Y123150D02*
X249555D01*
X254673Y118032D02*
Y128268D01*
X338846Y45433D02*
X335303D01*
X337075Y43661D02*
Y47205D01*
X338846Y35433D02*
X335303D01*
X337075Y33661D02*
Y37205D01*
X338846Y25433D02*
X335303D01*
X337075Y23661D02*
Y27205D01*
X338846Y88898D02*
X335303D01*
X337075Y87126D02*
Y90669D01*
X338846Y78898D02*
X335303D01*
X337075Y77126D02*
Y80669D01*
X338846Y68898D02*
X335303D01*
X337075Y67126D02*
Y70669D01*
X356563Y88740D02*
X353020D01*
X354791Y86968D02*
Y90512D01*
X356563Y78740D02*
X353020D01*
X354791Y76968D02*
Y80512D01*
X356563Y68740D02*
X353020D01*
X354791Y66969D02*
Y70512D01*
X-362Y162382D02*
X-3118D01*
X-1740Y161004D02*
Y163760D01*
X39638Y162382D02*
X36882D01*
X38260Y161004D02*
Y163760D01*
X30031Y144382D02*
X26488D01*
X28260Y142610D02*
Y146153D01*
X20031Y144382D02*
X16488D01*
X18260Y142610D02*
Y146153D01*
X10031Y144382D02*
X6488D01*
X8260Y142610D02*
Y146153D01*
X30031Y128882D02*
X26488D01*
X28260Y127110D02*
Y130654D01*
X20031Y128882D02*
X16488D01*
X18260Y127110D02*
Y130654D01*
X10031Y128882D02*
X6488D01*
X8260Y127110D02*
Y130654D01*
X126638Y8020D02*
X123882D01*
X125260Y6642D02*
Y9398D01*
X106638Y8020D02*
X103882D01*
X105260Y6642D02*
Y9398D01*
X116638Y12744D02*
X113882D01*
X115260Y11366D02*
Y14122D01*
X274138Y224882D02*
X271382D01*
X272760Y223504D02*
Y226260D01*
X314138Y224882D02*
X311382D01*
X312760Y223504D02*
Y226260D01*
X48531Y324382D02*
X44988D01*
X46760Y322610D02*
Y326153D01*
X18531Y324382D02*
X14988D01*
X16760Y322610D02*
Y326153D01*
X28532Y324382D02*
X24988D01*
X26760Y322610D02*
Y326153D01*
X38532Y324382D02*
X34988D01*
X36760Y322610D02*
Y326153D01*
X77335Y206882D02*
X74185D01*
X75760Y205307D02*
Y208457D01*
X87177Y206882D02*
X84028D01*
X85602Y205307D02*
Y208457D01*
X112031Y185882D02*
X108488D01*
X110260Y184110D02*
Y187654D01*
X112031Y175882D02*
X108488D01*
X110260Y174110D02*
Y177654D01*
X86484Y37087D02*
X83728D01*
X85106Y35709D02*
Y38464D01*
X86484Y77087D02*
X83728D01*
X85106Y75709D02*
Y78465D01*
X27114Y1969D02*
X24358D01*
X25736Y591D02*
Y3347D01*
X67114Y1969D02*
X64358D01*
X65736Y591D02*
Y3347D01*
X27114Y15748D02*
X24358D01*
X25736Y14370D02*
Y17126D01*
X67114Y15748D02*
X64358D01*
X65736Y14370D02*
Y17126D01*
X356563Y45433D02*
X353020D01*
X354791Y43661D02*
Y47205D01*
X356563Y35433D02*
X353020D01*
X354791Y33661D02*
Y37205D01*
X356563Y25433D02*
X353020D01*
X354791Y23661D02*
Y27205D01*
X208886Y287165D02*
X203374D01*
X206130Y284409D02*
Y289921D01*
X208886Y277165D02*
X203374D01*
X206130Y274410D02*
Y279921D01*
X208886Y267165D02*
X203374D01*
X206130Y264409D02*
Y269921D01*
X208886Y257165D02*
X203374D01*
X206130Y254410D02*
Y259921D01*
X208886Y247165D02*
X203374D01*
X206130Y244409D02*
Y249921D01*
X208886Y237165D02*
X203374D01*
X206130Y234409D02*
Y239921D01*
X208886Y227165D02*
X203374D01*
X206130Y224410D02*
Y229921D01*
X208886Y217165D02*
X203374D01*
X206130Y214409D02*
Y219921D01*
X208886Y207165D02*
X203374D01*
X206130Y204410D02*
Y209921D01*
X208886Y197165D02*
X203374D01*
X206130Y194410D02*
Y199921D01*
X208886Y187165D02*
X203374D01*
X206130Y184409D02*
Y189921D01*
X208886Y177165D02*
X203374D01*
X206130Y174409D02*
Y179921D01*
X208886Y167165D02*
X203374D01*
X206130Y164409D02*
Y169921D01*
X208886Y157165D02*
X203374D01*
X206130Y154410D02*
Y159921D01*
X208886Y147165D02*
X203374D01*
X206130Y144410D02*
Y149921D01*
X208886Y137165D02*
X203374D01*
X206130Y134409D02*
Y139921D01*
X208886Y127165D02*
X203374D01*
X206130Y124409D02*
Y129921D01*
X208886Y117165D02*
X203374D01*
X206130Y114409D02*
Y119921D01*
X208886Y107165D02*
X203374D01*
X206130Y104410D02*
Y109921D01*
X208886Y97165D02*
X203374D01*
X206130Y94410D02*
Y99921D01*
X148886Y287165D02*
X143374D01*
X146130Y284409D02*
Y289921D01*
X148886Y277165D02*
X143374D01*
X146130Y274410D02*
Y279921D01*
X148886Y267165D02*
X143374D01*
X146130Y264409D02*
Y269921D01*
X148886Y257165D02*
X143374D01*
X146130Y254410D02*
Y259921D01*
X148886Y247165D02*
X143374D01*
X146130Y244409D02*
Y249921D01*
X148886Y237165D02*
X143374D01*
X146130Y234409D02*
Y239921D01*
X148886Y227165D02*
X143374D01*
X146130Y224410D02*
Y229921D01*
X148886Y217165D02*
X143374D01*
X146130Y214409D02*
Y219921D01*
X148886Y207165D02*
X143374D01*
X146130Y204410D02*
Y209921D01*
X148886Y197165D02*
X143374D01*
X146130Y194410D02*
Y199921D01*
X148886Y187165D02*
X143374D01*
X146130Y184409D02*
Y189921D01*
X148886Y177165D02*
X143374D01*
X146130Y174409D02*
Y179921D01*
X148886Y167165D02*
X143374D01*
X146130Y164409D02*
Y169921D01*
X148886Y157165D02*
X143374D01*
X146130Y154410D02*
Y159921D01*
X148886Y147165D02*
X143374D01*
X146130Y144410D02*
Y149921D01*
X148886Y137165D02*
X143374D01*
X146130Y134409D02*
Y139921D01*
X148886Y127165D02*
X143374D01*
X146130Y124409D02*
Y129921D01*
X148886Y117165D02*
X143374D01*
X146130Y114409D02*
Y119921D01*
X148886Y107165D02*
X143374D01*
X146130Y104410D02*
Y109921D01*
X148886Y97165D02*
X143374D01*
X146130Y94410D02*
Y99921D01*
X163987Y38900D02*
X160837D01*
X162412Y37325D02*
Y40475D01*
X173829Y38900D02*
X170679D01*
X172254Y37325D02*
Y40475D01*
X181703Y38900D02*
X178553D01*
X180128Y37325D02*
Y40475D01*
X191546Y38900D02*
X188396D01*
X189971Y37325D02*
Y40475D01*
X154735Y28861D02*
X146861D01*
X150798Y24924D02*
Y32798D01*
X205522Y28861D02*
X197648D01*
X201585Y24924D02*
Y32798D01*
X-5445Y370079D02*
X-17256D01*
X-11350Y364173D02*
Y375984D01*
X-5445Y0D02*
X-17256D01*
X-11350Y-5906D02*
Y5906D01*
X364634Y0D02*
X352823D01*
X358728Y-5906D02*
Y5906D01*
X364634Y370079D02*
X352823D01*
X358728Y364173D02*
Y375984D01*
X286757Y75550D02*
X283213D01*
X284985Y73778D02*
Y77321D01*
X296757Y75550D02*
X293213D01*
X294985Y73778D02*
Y77321D01*
X306757Y75550D02*
X303213D01*
X304985Y73778D02*
Y77321D01*
X240938Y25982D02*
X238182D01*
X239560Y24604D02*
Y27360D01*
X240938Y65982D02*
X238182D01*
X239560Y64604D02*
Y67360D01*
X270594Y15749D02*
X267445D01*
X269019Y14174D02*
Y17324D01*
X304594Y788D02*
X301445D01*
X303019Y-787D02*
Y2363D01*
X304594Y15749D02*
X301445D01*
X303019Y14174D02*
Y17324D01*
X270594Y788D02*
X267445D01*
X269019Y-787D02*
Y2363D01*
X6532Y264882D02*
X2988D01*
X4760Y263110D02*
Y266653D01*
X6532Y254882D02*
X2988D01*
X4760Y253110D02*
Y256653D01*
X6532Y244882D02*
X2988D01*
X4760Y243110D02*
Y246654D01*
X6532Y234882D02*
X2988D01*
X4760Y233110D02*
Y236653D01*
X6532Y224882D02*
X2988D01*
X4760Y223110D02*
Y226654D01*
X6532Y214882D02*
X2988D01*
X4760Y213110D02*
Y216653D01*
X273177Y188976D02*
X270421D01*
X271799Y187598D02*
Y190354D01*
X313177Y188976D02*
X310421D01*
X311799Y187598D02*
Y190354D01*
X325532Y286882D02*
X321988D01*
X323760Y285110D02*
Y288653D01*
X315531Y286882D02*
X311988D01*
X313760Y285110D02*
Y288653D01*
X305532Y286882D02*
X301988D01*
X303760Y285110D02*
Y288653D01*
X295532Y286882D02*
X291988D01*
X293760Y285110D02*
Y288653D01*
X285531Y286882D02*
X281988D01*
X283760Y285110D02*
Y288653D01*
X275532Y286882D02*
X271988D01*
X273760Y285110D02*
Y288653D01*
X340815Y304055D02*
X337272D01*
X339043Y302284D02*
Y305827D01*
X340815Y314055D02*
X337272D01*
X339043Y312283D02*
Y315827D01*
X340815Y338504D02*
X337272D01*
X339043Y336732D02*
Y340276D01*
X340815Y348504D02*
X337272D01*
X339043Y346732D02*
Y350276D01*
X77428Y100000D02*
X76028D01*
X76728Y99300D02*
Y100700D01*
X51428Y122000D02*
X50028D01*
X50728Y121300D02*
Y122700D01*
X5428Y184000D02*
X4028D01*
X4728Y183300D02*
Y184700D01*
X-8572Y184000D02*
X-9972D01*
X-9272Y183300D02*
Y184700D01*
X-8572Y198000D02*
X-9972D01*
X-9272Y197300D02*
Y198700D01*
X5428Y198000D02*
X4028D01*
X4728Y197300D02*
Y198700D01*
X175428Y202000D02*
X174028D01*
X174728Y201300D02*
Y202700D01*
X163428Y202000D02*
X162028D01*
X162728Y201300D02*
Y202700D01*
X163428Y214000D02*
X162028D01*
X162728Y213300D02*
Y214700D01*
X175428Y214000D02*
X174028D01*
X174728Y213300D02*
Y214700D01*
X137428Y88000D02*
X136028D01*
X136728Y87300D02*
Y88700D01*
X147428Y88000D02*
X146028D01*
X146728Y87300D02*
Y88700D01*
X139428Y20000D02*
X138028D01*
X138728Y19300D02*
Y20700D01*
X139428Y34000D02*
X138028D01*
X138728Y33300D02*
Y34700D01*
X287428Y-6000D02*
X286028D01*
X286728Y-6700D02*
Y-5300D01*
X287428Y0D02*
X286028D01*
X286728Y-700D02*
Y700D01*
X247428Y14000D02*
X246028D01*
X246728Y13300D02*
Y14700D01*
X247428Y0D02*
X246028D01*
X246728Y-700D02*
Y700D01*
X339428Y154000D02*
X338028D01*
X338728Y153300D02*
Y154700D01*
X345428Y104000D02*
X344028D01*
X344728Y103300D02*
Y104700D01*
X237428Y236000D02*
X236028D01*
X236728Y235300D02*
Y236700D01*
X237428Y248000D02*
X236028D01*
X236728Y247300D02*
Y248700D01*
X293928Y326000D02*
X292528D01*
X293228Y325300D02*
Y326700D01*
X331428Y326000D02*
X330028D01*
X330728Y325300D02*
Y326700D01*
X321428Y326000D02*
X320028D01*
X320728Y325300D02*
Y326700D01*
X297428Y342000D02*
X296028D01*
X296728Y341300D02*
Y342700D01*
X297428Y350000D02*
X296028D01*
X296728Y349300D02*
Y350700D01*
X33428Y368000D02*
X32028D01*
X32728Y367300D02*
Y368700D01*
X93428Y368000D02*
X92028D01*
X92728Y367300D02*
Y368700D01*
X157428Y368000D02*
X156028D01*
X156728Y367300D02*
Y368700D01*
X193428Y368000D02*
X192028D01*
X192728Y367300D02*
Y368700D01*
X83428Y286000D02*
X82028D01*
X82728Y285300D02*
Y286700D01*
X95428Y286000D02*
X94028D01*
X94728Y285300D02*
Y286700D01*
X67428Y166000D02*
X66028D01*
X66728Y165300D02*
Y166700D01*
X57428Y166000D02*
X56028D01*
X56728Y165300D02*
Y166700D01*
X57428Y176000D02*
X56028D01*
X56728Y175300D02*
Y176700D01*
X67428Y176000D02*
X66028D01*
X66728Y175300D02*
Y176700D01*
X3428Y74000D02*
X2028D01*
X2728Y73300D02*
Y74700D01*
X-8572Y74000D02*
X-9972D01*
X-9272Y73300D02*
Y74700D01*
X-8572Y86000D02*
X-9972D01*
X-9272Y85300D02*
Y86700D01*
X3428Y86000D02*
X2028D01*
X2728Y85300D02*
Y86700D01*
X-12572Y14000D02*
X-13972D01*
X-13272Y13300D02*
Y14700D01*
X-572Y14000D02*
X-1972D01*
X-1272Y13300D02*
Y14700D01*
X-12572Y24000D02*
X-13972D01*
X-13272Y23300D02*
Y24700D01*
X-572Y24000D02*
X-1972D01*
X-1272Y23300D02*
Y24700D01*
X161428Y10000D02*
X160028D01*
X160728Y9300D02*
Y10700D01*
X197428Y10000D02*
X196028D01*
X196728Y9300D02*
Y10700D01*
X105428Y100000D02*
X104028D01*
X104728Y99300D02*
Y100700D01*
X105428Y82000D02*
X104028D01*
X104728Y81300D02*
Y82700D01*
X97428Y174000D02*
X96028D01*
X96728Y173300D02*
Y174700D01*
X97428Y186000D02*
X96028D01*
X96728Y185300D02*
Y186700D01*
X121428Y154000D02*
X120028D01*
X120728Y153300D02*
Y154700D01*
X111428Y122000D02*
X110028D01*
X110728Y121300D02*
Y122700D01*
X71428Y122000D02*
X70028D01*
X70728Y121300D02*
Y122700D01*
X279428Y124000D02*
X278028D01*
X278728Y123300D02*
Y124700D01*
X295428Y124000D02*
X294028D01*
X294728Y123300D02*
Y124700D01*
X297428Y176000D02*
X296028D01*
X296728Y175300D02*
Y176700D01*
X285428Y176000D02*
X284028D01*
X284728Y175300D02*
Y176700D01*
X285428Y202000D02*
X284028D01*
X284728Y201300D02*
Y202700D01*
X297428Y202000D02*
X296028D01*
X296728Y201300D02*
Y202700D01*
X335428Y180000D02*
X334028D01*
X334728Y179300D02*
Y180700D01*
X335428Y198000D02*
X334028D01*
X334728Y197300D02*
Y198700D01*
X183428Y306000D02*
X182028D01*
X182728Y305300D02*
Y306700D01*
X171428Y306000D02*
X170028D01*
X170728Y305300D02*
Y306700D01*
X171428Y318000D02*
X170028D01*
X170728Y317300D02*
Y318700D01*
X183428Y318000D02*
X182028D01*
X182728Y317300D02*
Y318700D01*
X171428Y258000D02*
X170028D01*
X170728Y257300D02*
Y258700D01*
X181428Y258000D02*
X180028D01*
X180728Y257300D02*
Y258700D01*
X171428Y270000D02*
X170028D01*
X170728Y269300D02*
Y270700D01*
X181428Y270000D02*
X180028D01*
X180728Y269300D02*
Y270700D01*
X179428Y134000D02*
X178028D01*
X178728Y133300D02*
Y134700D01*
X179428Y146000D02*
X178028D01*
X178728Y145300D02*
Y146700D01*
X195428Y134000D02*
X194028D01*
X194728Y133300D02*
Y134700D01*
X195428Y146000D02*
X194028D01*
X194728Y145300D02*
Y146700D01*
X203428Y78000D02*
X202028D01*
X202728Y77300D02*
Y78700D01*
X211428Y78000D02*
X210028D01*
X210728Y77300D02*
Y78700D01*
X229428Y88000D02*
X228028D01*
X228728Y87300D02*
Y88700D01*
X239428Y88000D02*
X238028D01*
X238728Y87300D02*
Y88700D01*
X281428Y48000D02*
X280028D01*
X280728Y47300D02*
Y48700D01*
X291428Y48000D02*
X290028D01*
X290728Y47300D02*
Y48700D01*
X291428Y56000D02*
X290028D01*
X290728Y55300D02*
Y56700D01*
X281428Y56000D02*
X280028D01*
X280728Y55300D02*
Y56700D01*
X188960Y215382D02*
X187760D01*
X188360Y214782D02*
Y215982D01*
M02*
