G04*
G04 #@! TF.GenerationSoftware,Altium Limited,Altium Designer,22.0.2 (36)*
G04*
G04 Layer_Color=8421504*
%FSLAX25Y25*%
%MOIN*%
G70*
G04*
G04 #@! TF.SameCoordinates,D467B77E-6E5F-44E5-9B52-D7AE6B4A5D67*
G04*
G04*
G04 #@! TF.FilePolarity,Positive*
G04*
G01*
G75*
%ADD22R,0.03500X0.03800*%
%ADD23R,0.03740X0.03740*%
%ADD24R,0.03800X0.03500*%
%ADD25R,0.03347X0.03150*%
%ADD26R,0.07090X0.03940*%
%ADD27R,0.02362X0.07087*%
%ADD28R,0.01968X0.07087*%
%ADD29R,0.03740X0.03740*%
D22*
X-13272Y143100D02*
D03*
Y150000D02*
D03*
X124760Y242682D02*
D03*
Y235782D02*
D03*
X236681Y117126D02*
D03*
Y110226D02*
D03*
X-13272Y130900D02*
D03*
Y124000D02*
D03*
D23*
X306634Y329142D02*
D03*
X306634Y336622D02*
D03*
X315886Y332882D02*
D03*
X306634Y315142D02*
D03*
X306634Y322622D02*
D03*
X315886Y318882D02*
D03*
D24*
X-2140Y339882D02*
D03*
X4760D02*
D03*
X305860Y213882D02*
D03*
X312760D02*
D03*
X111828Y28000D02*
D03*
X118728D02*
D03*
X16760Y312882D02*
D03*
X23660D02*
D03*
X16260Y1882D02*
D03*
X9360D02*
D03*
X9860Y15882D02*
D03*
X16760D02*
D03*
D25*
X313260Y1008D02*
D03*
Y6756D02*
D03*
X258760Y1008D02*
D03*
Y6756D02*
D03*
X260303Y38307D02*
D03*
Y32559D02*
D03*
D26*
X250580Y83582D02*
D03*
Y95392D02*
D03*
X270260D02*
D03*
Y83582D02*
D03*
D27*
X296839Y19685D02*
D03*
X292036D02*
D03*
X279988D02*
D03*
X275185D02*
D03*
D28*
X287980D02*
D03*
X284043D02*
D03*
D29*
X263059Y176476D02*
D03*
X255579Y176476D02*
D03*
X259319Y185728D02*
D03*
M02*
