G04*
G04 #@! TF.GenerationSoftware,Altium Limited,Altium Designer,22.0.2 (36)*
G04*
G04 Layer_Color=8388736*
%FSLAX25Y25*%
%MOIN*%
G70*
G04*
G04 #@! TF.SameCoordinates,D467B77E-6E5F-44E5-9B52-D7AE6B4A5D67*
G04*
G04*
G04 #@! TF.FilePolarity,Negative*
G04*
G01*
G75*
%ADD30R,0.04300X0.04600*%
%ADD31R,0.04540X0.04540*%
%ADD32R,0.04600X0.04300*%
%ADD33R,0.04147X0.03950*%
%ADD34R,0.07490X0.04340*%
%ADD35R,0.03162X0.07887*%
%ADD36R,0.02769X0.07887*%
%ADD37R,0.04540X0.04540*%
%ADD38R,0.06706X0.06706*%
%ADD39C,0.06706*%
%ADD40C,0.07099*%
%ADD41R,0.07099X0.07099*%
%ADD42R,0.05524X0.05524*%
%ADD43C,0.05524*%
%ADD44O,0.08674X0.10642*%
%ADD45R,0.06706X0.06706*%
%ADD46C,0.09855*%
%ADD47R,0.09855X0.09855*%
%ADD48C,0.06800*%
%ADD49R,0.06800X0.06800*%
%ADD50C,0.07493*%
%ADD51R,0.07493X0.07493*%
%ADD52R,0.05524X0.05524*%
%ADD53C,0.12611*%
%ADD54R,0.07099X0.07099*%
%ADD55O,0.05524X0.07887*%
%ADD56R,0.07493X0.07493*%
%ADD57O,0.09461X0.07335*%
%ADD58R,0.09461X0.07335*%
G04:AMPARAMS|DCode=59|XSize=86.74mil|YSize=126.11mil|CornerRadius=23.68mil|HoleSize=0mil|Usage=FLASHONLY|Rotation=180.000|XOffset=0mil|YOffset=0mil|HoleType=Round|Shape=RoundedRectangle|*
%AMROUNDEDRECTD59*
21,1,0.08674,0.07874,0,0,180.0*
21,1,0.03937,0.12611,0,0,180.0*
1,1,0.04737,-0.01968,0.03937*
1,1,0.04737,0.01968,0.03937*
1,1,0.04737,0.01968,-0.03937*
1,1,0.04737,-0.01968,-0.03937*
%
%ADD59ROUNDEDRECTD59*%
%ADD60C,0.14186*%
%ADD61O,0.04737X0.07887*%
D30*
X-13272Y143100D02*
D03*
Y150000D02*
D03*
X124760Y242682D02*
D03*
Y235782D02*
D03*
X236681Y117126D02*
D03*
Y110226D02*
D03*
X-13272Y130900D02*
D03*
Y124000D02*
D03*
D31*
X306634Y329142D02*
D03*
X306634Y336622D02*
D03*
X315886Y332882D02*
D03*
X306634Y315142D02*
D03*
X306634Y322622D02*
D03*
X315886Y318882D02*
D03*
D32*
X-2140Y339882D02*
D03*
X4760D02*
D03*
X305860Y213882D02*
D03*
X312760D02*
D03*
X111828Y28000D02*
D03*
X118728D02*
D03*
X16760Y312882D02*
D03*
X23660D02*
D03*
X16260Y1882D02*
D03*
X9360D02*
D03*
X9860Y15882D02*
D03*
X16760D02*
D03*
D33*
X313260Y1008D02*
D03*
Y6756D02*
D03*
X258760Y1008D02*
D03*
Y6756D02*
D03*
X260303Y38307D02*
D03*
Y32559D02*
D03*
D34*
X250580Y83582D02*
D03*
Y95392D02*
D03*
X270260D02*
D03*
Y83582D02*
D03*
D35*
X296839Y19685D02*
D03*
X292036D02*
D03*
X279988D02*
D03*
X275185D02*
D03*
D36*
X287980D02*
D03*
X284043D02*
D03*
D37*
X263059Y176476D02*
D03*
X255579Y176476D02*
D03*
X259319Y185728D02*
D03*
D38*
X50173Y215724D02*
D03*
X110173Y285724D02*
D03*
X4760Y264882D02*
D03*
D39*
X50173Y225724D02*
D03*
Y235724D02*
D03*
Y245724D02*
D03*
Y255724D02*
D03*
Y265724D02*
D03*
Y275724D02*
D03*
Y285724D02*
D03*
X110173Y215724D02*
D03*
Y225724D02*
D03*
Y235724D02*
D03*
Y245724D02*
D03*
Y255724D02*
D03*
Y265724D02*
D03*
Y275724D02*
D03*
X325264Y188976D02*
D03*
X344949D02*
D03*
X55468Y88383D02*
D03*
X45468Y31296D02*
D03*
X55468D02*
D03*
X255360Y55382D02*
D03*
X294985Y91050D02*
D03*
X304985D02*
D03*
X18260Y144382D02*
D03*
X8260D02*
D03*
X18260Y128882D02*
D03*
X8260D02*
D03*
X162412Y38900D02*
D03*
X172254D02*
D03*
X180128D02*
D03*
X189971D02*
D03*
X294985Y75550D02*
D03*
X304985Y75550D02*
D03*
X4760Y254882D02*
D03*
Y244882D02*
D03*
Y234882D02*
D03*
Y224882D02*
D03*
Y214882D02*
D03*
X313760Y286882D02*
D03*
X303760D02*
D03*
X293760D02*
D03*
X283760D02*
D03*
X273760D02*
D03*
D40*
X354329Y275452D02*
D03*
X279516Y261811D02*
D03*
X299516D02*
D03*
X319516D02*
D03*
X309516D02*
D03*
X289516Y261811D02*
D03*
X269516Y261811D02*
D03*
X337075Y35433D02*
D03*
Y25433D02*
D03*
Y78898D02*
D03*
Y68898D02*
D03*
X354791Y78740D02*
D03*
X354791Y68740D02*
D03*
X46760Y324382D02*
D03*
X26760D02*
D03*
X36760D02*
D03*
X75760Y206882D02*
D03*
X354791Y35433D02*
D03*
X354791Y25433D02*
D03*
D41*
X344487Y275452D02*
D03*
X329516Y261811D02*
D03*
X16760Y324382D02*
D03*
X85602Y206882D02*
D03*
D42*
X-1740Y111882D02*
D03*
X287260Y332382D02*
D03*
Y321382D02*
D03*
Y310382D02*
D03*
Y299382D02*
D03*
X-1740Y162382D02*
D03*
X272760Y224882D02*
D03*
X25736Y1969D02*
D03*
Y15748D02*
D03*
X271799Y188976D02*
D03*
D43*
X38260Y111882D02*
D03*
X247260Y332382D02*
D03*
Y321382D02*
D03*
Y310382D02*
D03*
Y299382D02*
D03*
X236681Y167008D02*
D03*
X38260Y162382D02*
D03*
X312760Y224882D02*
D03*
X85106Y77087D02*
D03*
X65736Y1969D02*
D03*
Y15748D02*
D03*
X239560Y65982D02*
D03*
X311799Y188976D02*
D03*
D44*
X22436Y60824D02*
D03*
X68499Y60824D02*
D03*
D45*
X35468Y88383D02*
D03*
Y31296D02*
D03*
X265360Y55382D02*
D03*
X284985Y91050D02*
D03*
X28260Y144382D02*
D03*
Y128882D02*
D03*
X284985Y75550D02*
D03*
X323760Y286882D02*
D03*
D46*
X308760Y352382D02*
D03*
D47*
Y302382D02*
D03*
D48*
X107760Y346882D02*
D03*
X97760D02*
D03*
X87760D02*
D03*
X26760D02*
D03*
X36760D02*
D03*
X46760D02*
D03*
D49*
X77760D02*
D03*
X16760D02*
D03*
D50*
X260760D02*
D03*
X280760D02*
D03*
X270760D02*
D03*
X110260Y185882D02*
D03*
X339043Y304055D02*
D03*
Y338504D02*
D03*
D51*
X250760Y346882D02*
D03*
D52*
X236681Y207008D02*
D03*
X85106Y37087D02*
D03*
X239560Y25982D02*
D03*
D53*
X344358Y123150D02*
D03*
X254673D02*
D03*
D54*
X337075Y45433D02*
D03*
Y88898D02*
D03*
X354791Y88740D02*
D03*
Y45433D02*
D03*
D55*
X125260Y8020D02*
D03*
X105260D02*
D03*
X115260Y12744D02*
D03*
D56*
X110260Y175882D02*
D03*
X339043Y314055D02*
D03*
Y348504D02*
D03*
D57*
X206130Y287165D02*
D03*
Y277165D02*
D03*
Y267165D02*
D03*
Y257165D02*
D03*
Y247165D02*
D03*
Y237165D02*
D03*
Y227165D02*
D03*
Y217165D02*
D03*
Y207165D02*
D03*
Y197165D02*
D03*
Y187165D02*
D03*
Y177165D02*
D03*
Y167165D02*
D03*
Y157165D02*
D03*
Y147165D02*
D03*
Y137165D02*
D03*
Y127165D02*
D03*
Y117165D02*
D03*
Y107165D02*
D03*
Y97165D02*
D03*
X146130Y287165D02*
D03*
Y277165D02*
D03*
Y267165D02*
D03*
Y257165D02*
D03*
Y247165D02*
D03*
Y237165D02*
D03*
Y227165D02*
D03*
Y217165D02*
D03*
Y207165D02*
D03*
Y197165D02*
D03*
Y187165D02*
D03*
Y177165D02*
D03*
Y167165D02*
D03*
Y157165D02*
D03*
Y147165D02*
D03*
Y137165D02*
D03*
Y127165D02*
D03*
Y117165D02*
D03*
Y107165D02*
D03*
D58*
Y97165D02*
D03*
D59*
X150798Y28861D02*
D03*
X201585D02*
D03*
D60*
X-11350Y370079D02*
D03*
Y0D02*
D03*
X358728D02*
D03*
Y370079D02*
D03*
D61*
X269019Y15749D02*
D03*
X303019Y788D02*
D03*
Y15749D02*
D03*
X269019Y788D02*
D03*
M02*
