G04*
G04 #@! TF.GenerationSoftware,Altium Limited,Altium Designer,22.0.2 (36)*
G04*
G04 Layer_Color=32896*
%FSLAX25Y25*%
%MOIN*%
G70*
G04*
G04 #@! TF.SameCoordinates,D467B77E-6E5F-44E5-9B52-D7AE6B4A5D67*
G04*
G04*
G04 #@! TF.FilePolarity,Positive*
G04*
G01*
G75*
%ADD10C,0.01000*%
%ADD89C,0.01181*%
G36*
X345949Y92274D02*
X345749Y92259D01*
X345564Y92237D01*
X345386Y92207D01*
X345216Y92171D01*
X345053Y92126D01*
X344913Y92089D01*
X344772Y92045D01*
X344654Y91993D01*
X344543Y91956D01*
X344454Y91912D01*
X344373Y91874D01*
X344313Y91845D01*
X344269Y91823D01*
X344239Y91808D01*
X344232Y91800D01*
X344091Y91704D01*
X343966Y91608D01*
X343855Y91505D01*
X343758Y91394D01*
X343684Y91282D01*
X343618Y91179D01*
X343566Y91068D01*
X343522Y90964D01*
X343485Y90868D01*
X343462Y90772D01*
X343440Y90690D01*
X343433Y90624D01*
X343425Y90565D01*
X343418Y90520D01*
Y90483D01*
X343425Y90335D01*
X343448Y90195D01*
X343485Y90061D01*
X343536Y89936D01*
X343596Y89817D01*
X343662Y89714D01*
X343729Y89610D01*
X343795Y89521D01*
X343869Y89440D01*
X343936Y89373D01*
X344003Y89314D01*
X344062Y89262D01*
X344106Y89225D01*
X344151Y89196D01*
X344173Y89181D01*
X344180Y89174D01*
X344328Y89085D01*
X344484Y89011D01*
X344646Y88944D01*
X344809Y88892D01*
X344979Y88841D01*
X345142Y88803D01*
X345298Y88774D01*
X345453Y88744D01*
X345601Y88730D01*
X345734Y88715D01*
X345853Y88700D01*
X345956Y88692D01*
X346038Y88685D01*
X346104D01*
X346141D01*
X346156D01*
X346385Y88692D01*
X346607Y88707D01*
X346807Y88730D01*
X347000Y88766D01*
X347185Y88803D01*
X347347Y88848D01*
X347503Y88900D01*
X347636Y88944D01*
X347762Y88996D01*
X347865Y89040D01*
X347962Y89085D01*
X348036Y89122D01*
X348095Y89159D01*
X348139Y89181D01*
X348169Y89196D01*
X348176Y89203D01*
X348309Y89307D01*
X348428Y89410D01*
X348524Y89514D01*
X348613Y89625D01*
X348687Y89736D01*
X348746Y89840D01*
X348798Y89943D01*
X348835Y90039D01*
X348864Y90136D01*
X348894Y90217D01*
X348909Y90291D01*
X348916Y90358D01*
X348924Y90409D01*
X348931Y90454D01*
Y90483D01*
X348924Y90624D01*
X348901Y90764D01*
X348864Y90890D01*
X348813Y91016D01*
X348761Y91127D01*
X348694Y91231D01*
X348628Y91327D01*
X348554Y91416D01*
X348487Y91497D01*
X348420Y91571D01*
X348354Y91630D01*
X348302Y91682D01*
X348250Y91719D01*
X348213Y91749D01*
X348191Y91764D01*
X348184Y91771D01*
X348036Y91860D01*
X347880Y91941D01*
X347717Y92008D01*
X347555Y92067D01*
X347384Y92119D01*
X347214Y92156D01*
X347051Y92193D01*
X346889Y92215D01*
X346741Y92237D01*
X346600Y92252D01*
X346474Y92267D01*
X346371Y92274D01*
X346282Y92282D01*
X346215D01*
X346171D01*
X346156D01*
X345949Y92274D01*
D02*
G37*
G36*
X343477Y85141D02*
X343818D01*
Y85969D01*
X343825Y85999D01*
X343840Y86051D01*
X343855Y86073D01*
X343862Y86080D01*
X343899Y86110D01*
X343936Y86117D01*
X343973Y86125D01*
X343980D01*
X343988D01*
X348354D01*
X348413Y86117D01*
X348457Y86102D01*
X348480Y86088D01*
X348487Y86080D01*
X348502Y86066D01*
X348509Y86043D01*
X348517Y85992D01*
X348524Y85947D01*
Y85141D01*
X348864D01*
Y87753D01*
X348524D01*
Y86968D01*
X348517Y86902D01*
X348502Y86857D01*
X348494Y86828D01*
X348487Y86820D01*
X348450Y86798D01*
X348406Y86783D01*
X348369Y86776D01*
X348361D01*
X348354D01*
X343988D01*
X343929Y86783D01*
X343892Y86798D01*
X343869Y86813D01*
X343862Y86820D01*
X343832Y86865D01*
X343825Y86917D01*
X343818Y86954D01*
Y87753D01*
X343477D01*
Y85141D01*
D02*
G37*
G36*
X343504Y79319D02*
X343845D01*
Y79534D01*
X343852Y79571D01*
X343859Y79600D01*
X343867Y79623D01*
X343889Y79645D01*
X343896Y79652D01*
X343933Y79667D01*
X343970Y79682D01*
X344000D01*
X344015D01*
X344059Y79674D01*
X344111Y79667D01*
X344155Y79660D01*
X344170Y79652D01*
X344178D01*
X347478Y78784D01*
X344074Y77972D01*
X344000Y77965D01*
X343948D01*
X343911Y77972D01*
X343904Y77980D01*
X343867Y78017D01*
X343852Y78061D01*
X343845Y78098D01*
Y78313D01*
X343504D01*
Y76840D01*
X343845D01*
Y77107D01*
X343859Y77144D01*
X343889Y77195D01*
X343918Y77232D01*
X343926Y77240D01*
X343933D01*
X343970Y77262D01*
X344015Y77277D01*
X344104Y77306D01*
X344148Y77314D01*
X344185Y77321D01*
X344207Y77329D01*
X344215D01*
X348891Y78476D01*
Y78786D01*
X344170Y80059D01*
X344111Y80081D01*
X344059Y80104D01*
X344015Y80126D01*
X343978Y80148D01*
X343948Y80163D01*
X343933Y80178D01*
X343918Y80192D01*
X343874Y80259D01*
X343852Y80318D01*
X343845Y80363D01*
Y80585D01*
X343504D01*
Y79319D01*
D02*
G37*
G36*
X346375Y69060D02*
X346716D01*
Y69379D01*
X346730Y69423D01*
X346753Y69490D01*
X346775Y69527D01*
X346790Y69541D01*
X346819Y69564D01*
X346849Y69586D01*
X346923Y69608D01*
X346953Y69615D01*
X346982D01*
X346997D01*
X347004D01*
X348040D01*
X348129Y69601D01*
X348203Y69571D01*
X348262Y69534D01*
X348314Y69504D01*
X348351Y69467D01*
X348381Y69438D01*
X348395Y69416D01*
X348403Y69408D01*
X348440Y69342D01*
X348469Y69260D01*
X348492Y69179D01*
X348506Y69105D01*
X348514Y69038D01*
X348521Y68979D01*
Y68927D01*
X348514Y68816D01*
X348492Y68713D01*
X348455Y68616D01*
X348403Y68528D01*
X348351Y68446D01*
X348292Y68372D01*
X348225Y68306D01*
X348151Y68246D01*
X348018Y68143D01*
X347959Y68106D01*
X347900Y68076D01*
X347855Y68054D01*
X347818Y68039D01*
X347796Y68024D01*
X347789D01*
X347508Y67936D01*
X347234Y67869D01*
X346967Y67817D01*
X346842Y67802D01*
X346723Y67788D01*
X346620Y67773D01*
X346516Y67765D01*
X346427Y67758D01*
X346353D01*
X346294Y67751D01*
X346250D01*
X346220D01*
X346213D01*
X345983Y67758D01*
X345768Y67765D01*
X345569Y67788D01*
X345384Y67810D01*
X345221Y67832D01*
X345065Y67869D01*
X344925Y67899D01*
X344807Y67936D01*
X344695Y67965D01*
X344607Y68002D01*
X344525Y68032D01*
X344459Y68054D01*
X344414Y68084D01*
X344377Y68098D01*
X344355Y68106D01*
X344348Y68113D01*
X344244Y68180D01*
X344148Y68254D01*
X344067Y68320D01*
X344000Y68387D01*
X343941Y68454D01*
X343896Y68520D01*
X343852Y68579D01*
X343822Y68639D01*
X343778Y68742D01*
X343756Y68824D01*
Y68853D01*
X343748Y68875D01*
Y68890D01*
X343763Y69023D01*
X343793Y69142D01*
X343837Y69245D01*
X343882Y69334D01*
X343933Y69408D01*
X343978Y69467D01*
X344007Y69497D01*
X344022Y69512D01*
X344081Y69556D01*
X344141Y69608D01*
X344288Y69689D01*
X344444Y69771D01*
X344599Y69837D01*
X344740Y69897D01*
X344807Y69919D01*
X344858Y69934D01*
X344903Y69948D01*
X344940Y69963D01*
X344962Y69971D01*
X344969D01*
X344888Y70296D01*
X343371Y70008D01*
X343415Y69948D01*
X343452Y69904D01*
X343475Y69860D01*
X343497Y69830D01*
X343512Y69800D01*
X343526Y69786D01*
X343534Y69771D01*
X343548Y69719D01*
X343556Y69675D01*
X343563Y69645D01*
Y69630D01*
X343556Y69601D01*
X343548Y69564D01*
X343519Y69467D01*
X343504Y69423D01*
X343497Y69386D01*
X343482Y69356D01*
Y69349D01*
X343445Y69253D01*
X343423Y69171D01*
X343401Y69090D01*
X343393Y69023D01*
X343386Y68972D01*
X343378Y68935D01*
Y68898D01*
X343386Y68750D01*
X343415Y68609D01*
X343452Y68468D01*
X343512Y68343D01*
X343571Y68224D01*
X343645Y68113D01*
X343719Y68017D01*
X343800Y67921D01*
X343882Y67839D01*
X343955Y67765D01*
X344029Y67706D01*
X344089Y67654D01*
X344141Y67610D01*
X344185Y67580D01*
X344215Y67566D01*
X344222Y67558D01*
X344385Y67469D01*
X344548Y67388D01*
X344718Y67321D01*
X344888Y67262D01*
X345051Y67210D01*
X345221Y67166D01*
X345376Y67129D01*
X345532Y67107D01*
X345672Y67085D01*
X345806Y67070D01*
X345917Y67055D01*
X346020Y67048D01*
X346101Y67040D01*
X346161D01*
X346198D01*
X346213D01*
X346397Y67048D01*
X346575Y67062D01*
X346753Y67085D01*
X346923Y67107D01*
X347086Y67144D01*
X347234Y67181D01*
X347374Y67218D01*
X347508Y67262D01*
X347626Y67307D01*
X347737Y67344D01*
X347826Y67381D01*
X347907Y67418D01*
X347974Y67440D01*
X348018Y67462D01*
X348048Y67477D01*
X348055Y67484D01*
X348203Y67573D01*
X348329Y67669D01*
X348440Y67780D01*
X348536Y67891D01*
X348618Y68010D01*
X348684Y68128D01*
X348743Y68246D01*
X348788Y68357D01*
X348825Y68468D01*
X348847Y68565D01*
X348869Y68661D01*
X348877Y68742D01*
X348884Y68809D01*
X348891Y68853D01*
Y68994D01*
X348884Y69083D01*
X348869Y69157D01*
X348862Y69231D01*
X348847Y69282D01*
X348839Y69327D01*
X348832Y69356D01*
Y69364D01*
X348802Y69445D01*
X348765Y69519D01*
X348728Y69586D01*
X348692Y69645D01*
X348655Y69697D01*
X348632Y69741D01*
X348610Y69763D01*
X348603Y69771D01*
X348573Y69808D01*
X348551Y69837D01*
X348536Y69860D01*
Y69867D01*
X348529Y69904D01*
X348521Y69941D01*
Y70000D01*
X348529Y70030D01*
X348536Y70045D01*
Y70052D01*
X348544Y70074D01*
X348551Y70104D01*
X348566Y70170D01*
X348573Y70207D01*
Y70237D01*
X348581Y70259D01*
Y70267D01*
X346975D01*
X346893Y70274D01*
X346834Y70304D01*
X346804Y70326D01*
X346790Y70333D01*
X346745Y70392D01*
X346723Y70452D01*
X346716Y70496D01*
Y70755D01*
X346375D01*
Y69060D01*
D02*
G37*
G36*
X345949Y48967D02*
X345749Y48952D01*
X345564Y48930D01*
X345386Y48900D01*
X345216Y48863D01*
X345053Y48819D01*
X344913Y48782D01*
X344772Y48738D01*
X344654Y48686D01*
X344543Y48649D01*
X344454Y48604D01*
X344373Y48567D01*
X344313Y48538D01*
X344269Y48516D01*
X344239Y48501D01*
X344232Y48493D01*
X344091Y48397D01*
X343966Y48301D01*
X343855Y48197D01*
X343758Y48086D01*
X343684Y47975D01*
X343618Y47872D01*
X343566Y47761D01*
X343522Y47657D01*
X343485Y47561D01*
X343462Y47465D01*
X343440Y47383D01*
X343433Y47317D01*
X343425Y47258D01*
X343418Y47213D01*
Y47176D01*
X343425Y47028D01*
X343448Y46888D01*
X343485Y46754D01*
X343536Y46629D01*
X343596Y46510D01*
X343662Y46407D01*
X343729Y46303D01*
X343795Y46214D01*
X343869Y46133D01*
X343936Y46066D01*
X344003Y46007D01*
X344062Y45955D01*
X344106Y45918D01*
X344151Y45889D01*
X344173Y45874D01*
X344180Y45866D01*
X344328Y45778D01*
X344484Y45704D01*
X344646Y45637D01*
X344809Y45585D01*
X344979Y45533D01*
X345142Y45496D01*
X345298Y45467D01*
X345453Y45437D01*
X345601Y45422D01*
X345734Y45408D01*
X345853Y45393D01*
X345956Y45385D01*
X346038Y45378D01*
X346104D01*
X346141D01*
X346156D01*
X346385Y45385D01*
X346607Y45400D01*
X346807Y45422D01*
X347000Y45459D01*
X347185Y45496D01*
X347347Y45541D01*
X347503Y45593D01*
X347636Y45637D01*
X347762Y45689D01*
X347865Y45733D01*
X347962Y45778D01*
X348036Y45815D01*
X348095Y45852D01*
X348139Y45874D01*
X348169Y45889D01*
X348176Y45896D01*
X348309Y46000D01*
X348428Y46103D01*
X348524Y46207D01*
X348613Y46318D01*
X348687Y46429D01*
X348746Y46532D01*
X348798Y46636D01*
X348835Y46732D01*
X348864Y46828D01*
X348894Y46910D01*
X348909Y46984D01*
X348916Y47050D01*
X348924Y47102D01*
X348931Y47147D01*
Y47176D01*
X348924Y47317D01*
X348901Y47457D01*
X348864Y47583D01*
X348813Y47709D01*
X348761Y47820D01*
X348694Y47924D01*
X348628Y48020D01*
X348554Y48109D01*
X348487Y48190D01*
X348420Y48264D01*
X348354Y48323D01*
X348302Y48375D01*
X348250Y48412D01*
X348213Y48442D01*
X348191Y48456D01*
X348184Y48464D01*
X348036Y48553D01*
X347880Y48634D01*
X347717Y48701D01*
X347555Y48760D01*
X347384Y48812D01*
X347214Y48849D01*
X347051Y48886D01*
X346889Y48908D01*
X346741Y48930D01*
X346600Y48945D01*
X346474Y48960D01*
X346371Y48967D01*
X346282Y48974D01*
X346215D01*
X346171D01*
X346156D01*
X345949Y48967D01*
D02*
G37*
G36*
X343477Y41833D02*
X343818D01*
Y42662D01*
X343825Y42692D01*
X343840Y42744D01*
X343855Y42766D01*
X343862Y42773D01*
X343899Y42803D01*
X343936Y42810D01*
X343973Y42818D01*
X343980D01*
X343988D01*
X348354D01*
X348413Y42810D01*
X348457Y42795D01*
X348480Y42781D01*
X348487Y42773D01*
X348502Y42758D01*
X348509Y42736D01*
X348517Y42684D01*
X348524Y42640D01*
Y41833D01*
X348864D01*
Y44446D01*
X348524D01*
Y43661D01*
X348517Y43595D01*
X348502Y43550D01*
X348494Y43521D01*
X348487Y43513D01*
X348450Y43491D01*
X348406Y43476D01*
X348369Y43469D01*
X348361D01*
X348354D01*
X343988D01*
X343929Y43476D01*
X343892Y43491D01*
X343869Y43506D01*
X343862Y43513D01*
X343832Y43558D01*
X343825Y43609D01*
X343818Y43646D01*
Y44446D01*
X343477D01*
Y41833D01*
D02*
G37*
G36*
X343504Y36012D02*
X343845D01*
Y36227D01*
X343852Y36264D01*
X343859Y36293D01*
X343867Y36316D01*
X343889Y36338D01*
X343896Y36345D01*
X343933Y36360D01*
X343970Y36375D01*
X344000D01*
X344015D01*
X344059Y36367D01*
X344111Y36360D01*
X344155Y36353D01*
X344170Y36345D01*
X344178D01*
X347478Y35477D01*
X344074Y34665D01*
X344000Y34658D01*
X343948D01*
X343911Y34665D01*
X343904Y34673D01*
X343867Y34710D01*
X343852Y34754D01*
X343845Y34791D01*
Y35006D01*
X343504D01*
Y33533D01*
X343845D01*
Y33799D01*
X343859Y33836D01*
X343889Y33888D01*
X343918Y33925D01*
X343926Y33933D01*
X343933D01*
X343970Y33955D01*
X344015Y33970D01*
X344104Y33999D01*
X344148Y34007D01*
X344185Y34014D01*
X344207Y34021D01*
X344215D01*
X348891Y35168D01*
Y35479D01*
X344170Y36752D01*
X344111Y36774D01*
X344059Y36797D01*
X344015Y36819D01*
X343978Y36841D01*
X343948Y36856D01*
X343933Y36871D01*
X343918Y36885D01*
X343874Y36952D01*
X343852Y37011D01*
X343845Y37056D01*
Y37277D01*
X343504D01*
Y36012D01*
D02*
G37*
G36*
X346375Y25753D02*
X346716D01*
Y26072D01*
X346730Y26116D01*
X346753Y26182D01*
X346775Y26219D01*
X346790Y26234D01*
X346819Y26256D01*
X346849Y26279D01*
X346923Y26301D01*
X346953Y26308D01*
X346982D01*
X346997D01*
X347004D01*
X348040D01*
X348129Y26294D01*
X348203Y26264D01*
X348262Y26227D01*
X348314Y26197D01*
X348351Y26160D01*
X348381Y26131D01*
X348395Y26109D01*
X348403Y26101D01*
X348440Y26035D01*
X348469Y25953D01*
X348492Y25872D01*
X348506Y25798D01*
X348514Y25731D01*
X348521Y25672D01*
Y25620D01*
X348514Y25509D01*
X348492Y25405D01*
X348455Y25309D01*
X348403Y25221D01*
X348351Y25139D01*
X348292Y25065D01*
X348225Y24998D01*
X348151Y24939D01*
X348018Y24836D01*
X347959Y24799D01*
X347900Y24769D01*
X347855Y24747D01*
X347818Y24732D01*
X347796Y24717D01*
X347789D01*
X347508Y24629D01*
X347234Y24562D01*
X346967Y24510D01*
X346842Y24495D01*
X346723Y24480D01*
X346620Y24466D01*
X346516Y24458D01*
X346427Y24451D01*
X346353D01*
X346294Y24443D01*
X346250D01*
X346220D01*
X346213D01*
X345983Y24451D01*
X345768Y24458D01*
X345569Y24480D01*
X345384Y24503D01*
X345221Y24525D01*
X345065Y24562D01*
X344925Y24591D01*
X344807Y24629D01*
X344695Y24658D01*
X344607Y24695D01*
X344525Y24725D01*
X344459Y24747D01*
X344414Y24777D01*
X344377Y24791D01*
X344355Y24799D01*
X344348Y24806D01*
X344244Y24873D01*
X344148Y24947D01*
X344067Y25013D01*
X344000Y25080D01*
X343941Y25146D01*
X343896Y25213D01*
X343852Y25272D01*
X343822Y25332D01*
X343778Y25435D01*
X343756Y25517D01*
Y25546D01*
X343748Y25568D01*
Y25583D01*
X343763Y25716D01*
X343793Y25835D01*
X343837Y25938D01*
X343882Y26027D01*
X343933Y26101D01*
X343978Y26160D01*
X344007Y26190D01*
X344022Y26205D01*
X344081Y26249D01*
X344141Y26301D01*
X344288Y26382D01*
X344444Y26464D01*
X344599Y26530D01*
X344740Y26590D01*
X344807Y26612D01*
X344858Y26627D01*
X344903Y26641D01*
X344940Y26656D01*
X344962Y26664D01*
X344969D01*
X344888Y26989D01*
X343371Y26700D01*
X343415Y26641D01*
X343452Y26597D01*
X343475Y26553D01*
X343497Y26523D01*
X343512Y26493D01*
X343526Y26478D01*
X343534Y26464D01*
X343548Y26412D01*
X343556Y26368D01*
X343563Y26338D01*
Y26323D01*
X343556Y26294D01*
X343548Y26256D01*
X343519Y26160D01*
X343504Y26116D01*
X343497Y26079D01*
X343482Y26049D01*
Y26042D01*
X343445Y25946D01*
X343423Y25864D01*
X343401Y25783D01*
X343393Y25716D01*
X343386Y25664D01*
X343378Y25627D01*
Y25591D01*
X343386Y25442D01*
X343415Y25302D01*
X343452Y25161D01*
X343512Y25036D01*
X343571Y24917D01*
X343645Y24806D01*
X343719Y24710D01*
X343800Y24614D01*
X343882Y24532D01*
X343955Y24458D01*
X344029Y24399D01*
X344089Y24347D01*
X344141Y24303D01*
X344185Y24273D01*
X344215Y24259D01*
X344222Y24251D01*
X344385Y24162D01*
X344548Y24081D01*
X344718Y24014D01*
X344888Y23955D01*
X345051Y23903D01*
X345221Y23859D01*
X345376Y23822D01*
X345532Y23800D01*
X345672Y23777D01*
X345806Y23763D01*
X345917Y23748D01*
X346020Y23741D01*
X346101Y23733D01*
X346161D01*
X346198D01*
X346213D01*
X346397Y23741D01*
X346575Y23755D01*
X346753Y23777D01*
X346923Y23800D01*
X347086Y23837D01*
X347234Y23874D01*
X347374Y23911D01*
X347508Y23955D01*
X347626Y24000D01*
X347737Y24036D01*
X347826Y24073D01*
X347907Y24111D01*
X347974Y24133D01*
X348018Y24155D01*
X348048Y24170D01*
X348055Y24177D01*
X348203Y24266D01*
X348329Y24362D01*
X348440Y24473D01*
X348536Y24584D01*
X348618Y24702D01*
X348684Y24821D01*
X348743Y24939D01*
X348788Y25050D01*
X348825Y25161D01*
X348847Y25258D01*
X348869Y25354D01*
X348877Y25435D01*
X348884Y25502D01*
X348891Y25546D01*
Y25687D01*
X348884Y25776D01*
X348869Y25850D01*
X348862Y25923D01*
X348847Y25975D01*
X348839Y26020D01*
X348832Y26049D01*
Y26057D01*
X348802Y26138D01*
X348765Y26212D01*
X348728Y26279D01*
X348692Y26338D01*
X348655Y26390D01*
X348632Y26434D01*
X348610Y26456D01*
X348603Y26464D01*
X348573Y26501D01*
X348551Y26530D01*
X348536Y26553D01*
Y26560D01*
X348529Y26597D01*
X348521Y26634D01*
Y26693D01*
X348529Y26723D01*
X348536Y26737D01*
Y26745D01*
X348544Y26767D01*
X348551Y26797D01*
X348566Y26863D01*
X348573Y26900D01*
Y26930D01*
X348581Y26952D01*
Y26959D01*
X346975D01*
X346893Y26967D01*
X346834Y26996D01*
X346804Y27019D01*
X346790Y27026D01*
X346745Y27085D01*
X346723Y27145D01*
X346716Y27189D01*
Y27448D01*
X346375D01*
Y25753D01*
D02*
G37*
%LPC*%
G36*
X345978Y91534D02*
X346052D01*
X346112D01*
X346141D01*
X346156D01*
X346400D01*
X346630Y91519D01*
X346837Y91505D01*
X347029Y91490D01*
X347199Y91467D01*
X347355Y91438D01*
X347495Y91416D01*
X347614Y91386D01*
X347725Y91356D01*
X347814Y91334D01*
X347888Y91305D01*
X347954Y91282D01*
X347999Y91268D01*
X348028Y91253D01*
X348050Y91238D01*
X348058D01*
X348154Y91179D01*
X348235Y91120D01*
X348302Y91061D01*
X348369Y91001D01*
X348420Y90935D01*
X348457Y90876D01*
X348494Y90809D01*
X348524Y90750D01*
X348561Y90646D01*
X348583Y90557D01*
Y90528D01*
X348591Y90505D01*
Y90483D01*
X348583Y90402D01*
X348568Y90320D01*
X348539Y90246D01*
X348502Y90180D01*
X348413Y90054D01*
X348309Y89943D01*
X348206Y89854D01*
X348117Y89788D01*
X348080Y89766D01*
X348050Y89751D01*
X348036Y89743D01*
X348028Y89736D01*
X347910Y89684D01*
X347784Y89632D01*
X347643Y89595D01*
X347495Y89558D01*
X347185Y89507D01*
X346881Y89469D01*
X346733Y89455D01*
X346600Y89447D01*
X346474Y89440D01*
X346371D01*
X346282Y89433D01*
X346215D01*
X346171D01*
X346156D01*
X345934D01*
X345734Y89447D01*
X345542Y89462D01*
X345372Y89477D01*
X345209Y89499D01*
X345061Y89521D01*
X344928Y89551D01*
X344809Y89581D01*
X344706Y89603D01*
X344617Y89632D01*
X344543Y89654D01*
X344484Y89677D01*
X344432Y89692D01*
X344402Y89706D01*
X344380Y89721D01*
X344373D01*
X344269Y89780D01*
X344180Y89840D01*
X344099Y89899D01*
X344032Y89965D01*
X343980Y90025D01*
X343929Y90091D01*
X343892Y90150D01*
X343862Y90210D01*
X343818Y90320D01*
X343795Y90402D01*
X343788Y90439D01*
Y90483D01*
X343795Y90587D01*
X343818Y90676D01*
X343847Y90764D01*
X343892Y90846D01*
X343936Y90912D01*
X343988Y90979D01*
X344106Y91090D01*
X344225Y91179D01*
X344284Y91208D01*
X344328Y91238D01*
X344373Y91253D01*
X344402Y91268D01*
X344424Y91282D01*
X344432D01*
X344558Y91327D01*
X344691Y91364D01*
X344972Y91430D01*
X345261Y91475D01*
X345401Y91490D01*
X345534Y91505D01*
X345660Y91512D01*
X345779Y91519D01*
X345882Y91527D01*
X345978Y91534D01*
D02*
G37*
G36*
Y48227D02*
X346052D01*
X346112D01*
X346141D01*
X346156D01*
X346400D01*
X346630Y48212D01*
X346837Y48197D01*
X347029Y48183D01*
X347199Y48160D01*
X347355Y48131D01*
X347495Y48109D01*
X347614Y48079D01*
X347725Y48049D01*
X347814Y48027D01*
X347888Y47998D01*
X347954Y47975D01*
X347999Y47961D01*
X348028Y47946D01*
X348050Y47931D01*
X348058D01*
X348154Y47872D01*
X348235Y47813D01*
X348302Y47753D01*
X348369Y47694D01*
X348420Y47628D01*
X348457Y47568D01*
X348494Y47502D01*
X348524Y47443D01*
X348561Y47339D01*
X348583Y47250D01*
Y47221D01*
X348591Y47198D01*
Y47176D01*
X348583Y47095D01*
X348568Y47013D01*
X348539Y46939D01*
X348502Y46873D01*
X348413Y46747D01*
X348309Y46636D01*
X348206Y46547D01*
X348117Y46481D01*
X348080Y46458D01*
X348050Y46444D01*
X348036Y46436D01*
X348028Y46429D01*
X347910Y46377D01*
X347784Y46325D01*
X347643Y46288D01*
X347495Y46251D01*
X347185Y46199D01*
X346881Y46162D01*
X346733Y46148D01*
X346600Y46140D01*
X346474Y46133D01*
X346371D01*
X346282Y46125D01*
X346215D01*
X346171D01*
X346156D01*
X345934D01*
X345734Y46140D01*
X345542Y46155D01*
X345372Y46170D01*
X345209Y46192D01*
X345061Y46214D01*
X344928Y46244D01*
X344809Y46273D01*
X344706Y46296D01*
X344617Y46325D01*
X344543Y46347D01*
X344484Y46370D01*
X344432Y46384D01*
X344402Y46399D01*
X344380Y46414D01*
X344373D01*
X344269Y46473D01*
X344180Y46532D01*
X344099Y46592D01*
X344032Y46658D01*
X343980Y46717D01*
X343929Y46784D01*
X343892Y46843D01*
X343862Y46902D01*
X343818Y47013D01*
X343795Y47095D01*
X343788Y47132D01*
Y47176D01*
X343795Y47280D01*
X343818Y47369D01*
X343847Y47457D01*
X343892Y47539D01*
X343936Y47605D01*
X343988Y47672D01*
X344106Y47783D01*
X344225Y47872D01*
X344284Y47901D01*
X344328Y47931D01*
X344373Y47946D01*
X344402Y47961D01*
X344424Y47975D01*
X344432D01*
X344558Y48020D01*
X344691Y48057D01*
X344972Y48123D01*
X345261Y48168D01*
X345401Y48183D01*
X345534Y48197D01*
X345660Y48205D01*
X345779Y48212D01*
X345882Y48220D01*
X345978Y48227D01*
D02*
G37*
%LPD*%
D10*
X314272Y312028D02*
X303248D01*
X314272D02*
Y342342D01*
X303248D01*
Y312028D02*
Y342342D01*
X193908Y42837D02*
X158475D01*
Y34963D02*
Y42837D01*
X193908Y34963D02*
X158475D01*
X193908D02*
Y42837D01*
X184853Y34963D02*
Y42837D01*
X176191Y34963D02*
Y42837D01*
X167530Y34963D02*
Y42837D01*
X150207Y23939D02*
Y45987D01*
X202176Y23939D02*
X150207D01*
X202176D02*
Y45987D01*
X150207D01*
X307060Y366280D02*
Y360282D01*
X310059D01*
X311059Y361282D01*
Y365280D01*
X310059Y366280D01*
X307060D01*
X313058Y360282D02*
X315057D01*
X314058D01*
Y366280D01*
X313058Y365280D01*
D89*
X313878Y315965D02*
X303642D01*
M02*
