G04*
G04 #@! TF.GenerationSoftware,Altium Limited,Altium Designer,22.0.2 (36)*
G04*
G04 Layer_Color=255*
%FSLAX25Y25*%
%MOIN*%
G70*
G04*
G04 #@! TF.SameCoordinates,D467B77E-6E5F-44E5-9B52-D7AE6B4A5D67*
G04*
G04*
G04 #@! TF.FilePolarity,Positive*
G04*
G01*
G75*
%ADD22R,0.03500X0.03800*%
%ADD23R,0.03740X0.03740*%
%ADD24R,0.03800X0.03500*%
%ADD25R,0.03347X0.03150*%
%ADD26R,0.07090X0.03940*%
%ADD27R,0.02362X0.07087*%
%ADD28R,0.01968X0.07087*%
%ADD29R,0.03740X0.03740*%
%ADD63R,0.05906X0.05906*%
%ADD64C,0.05906*%
%ADD65C,0.06299*%
%ADD66R,0.06299X0.06299*%
%ADD67R,0.04724X0.04724*%
%ADD68C,0.04724*%
%ADD69O,0.07874X0.09843*%
%ADD70R,0.05906X0.05906*%
%ADD71C,0.09055*%
%ADD72R,0.09055X0.09055*%
%ADD73C,0.06000*%
%ADD74R,0.06000X0.06000*%
%ADD75C,0.06693*%
%ADD76R,0.06693X0.06693*%
%ADD77R,0.04724X0.04724*%
%ADD78C,0.11811*%
%ADD79R,0.06299X0.06299*%
%ADD80O,0.04724X0.07087*%
%ADD81R,0.06693X0.06693*%
%ADD82O,0.08661X0.06535*%
%ADD83R,0.08661X0.06535*%
G04:AMPARAMS|DCode=84|XSize=78.74mil|YSize=118.11mil|CornerRadius=19.68mil|HoleSize=0mil|Usage=FLASHONLY|Rotation=180.000|XOffset=0mil|YOffset=0mil|HoleType=Round|Shape=RoundedRectangle|*
%AMROUNDEDRECTD84*
21,1,0.07874,0.07874,0,0,180.0*
21,1,0.03937,0.11811,0,0,180.0*
1,1,0.03937,-0.01968,0.03937*
1,1,0.03937,0.01968,0.03937*
1,1,0.03937,0.01968,-0.03937*
1,1,0.03937,-0.01968,-0.03937*
%
%ADD84ROUNDEDRECTD84*%
%ADD85C,0.13386*%
%ADD86O,0.03937X0.07087*%
D22*
X-13272Y143100D02*
D03*
Y150000D02*
D03*
X124760Y242682D02*
D03*
Y235782D02*
D03*
X236681Y117126D02*
D03*
Y110226D02*
D03*
X-13272Y130900D02*
D03*
Y124000D02*
D03*
D23*
X306634Y329142D02*
D03*
X306634Y336622D02*
D03*
X315886Y332882D02*
D03*
X306634Y315142D02*
D03*
X306634Y322622D02*
D03*
X315886Y318882D02*
D03*
D24*
X-2140Y339882D02*
D03*
X4760D02*
D03*
X305860Y213882D02*
D03*
X312760D02*
D03*
X111828Y28000D02*
D03*
X118728D02*
D03*
X16760Y312882D02*
D03*
X23660D02*
D03*
X16260Y1882D02*
D03*
X9360D02*
D03*
X9860Y15882D02*
D03*
X16760D02*
D03*
D25*
X313260Y1008D02*
D03*
Y6756D02*
D03*
X258760Y1008D02*
D03*
Y6756D02*
D03*
X260303Y38307D02*
D03*
Y32559D02*
D03*
D26*
X250580Y83582D02*
D03*
Y95392D02*
D03*
X270260D02*
D03*
Y83582D02*
D03*
D27*
X296839Y19685D02*
D03*
X292036D02*
D03*
X279988D02*
D03*
X275185D02*
D03*
D28*
X287980D02*
D03*
X284043D02*
D03*
D29*
X263059Y176476D02*
D03*
X255579Y176476D02*
D03*
X259319Y185728D02*
D03*
D63*
X50173Y215724D02*
D03*
X110173Y285724D02*
D03*
X4760Y264882D02*
D03*
D64*
X50173Y225724D02*
D03*
Y235724D02*
D03*
Y245724D02*
D03*
Y255724D02*
D03*
Y265724D02*
D03*
Y275724D02*
D03*
Y285724D02*
D03*
X110173Y215724D02*
D03*
Y225724D02*
D03*
Y235724D02*
D03*
Y245724D02*
D03*
Y255724D02*
D03*
Y265724D02*
D03*
Y275724D02*
D03*
X325264Y188976D02*
D03*
X344949D02*
D03*
X55468Y88383D02*
D03*
X45468Y31296D02*
D03*
X55468D02*
D03*
X255360Y55382D02*
D03*
X294985Y91050D02*
D03*
X304985D02*
D03*
X18260Y144382D02*
D03*
X8260D02*
D03*
X18260Y128882D02*
D03*
X8260D02*
D03*
X162412Y38900D02*
D03*
X172254D02*
D03*
X180128D02*
D03*
X189971D02*
D03*
X294985Y75550D02*
D03*
X304985Y75550D02*
D03*
X4760Y254882D02*
D03*
Y244882D02*
D03*
Y234882D02*
D03*
Y224882D02*
D03*
Y214882D02*
D03*
X313760Y286882D02*
D03*
X303760D02*
D03*
X293760D02*
D03*
X283760D02*
D03*
X273760D02*
D03*
D65*
X354329Y275452D02*
D03*
X279516Y261811D02*
D03*
X299516D02*
D03*
X319516D02*
D03*
X309516D02*
D03*
X289516Y261811D02*
D03*
X269516Y261811D02*
D03*
X337075Y35433D02*
D03*
Y25433D02*
D03*
Y78898D02*
D03*
Y68898D02*
D03*
X354791Y78740D02*
D03*
X354791Y68740D02*
D03*
X46760Y324382D02*
D03*
X26760D02*
D03*
X36760D02*
D03*
X75760Y206882D02*
D03*
X354791Y35433D02*
D03*
X354791Y25433D02*
D03*
D66*
X344487Y275452D02*
D03*
X329516Y261811D02*
D03*
X16760Y324382D02*
D03*
X85602Y206882D02*
D03*
D67*
X-1740Y111882D02*
D03*
X287260Y332382D02*
D03*
Y321382D02*
D03*
Y310382D02*
D03*
Y299382D02*
D03*
X-1740Y162382D02*
D03*
X272760Y224882D02*
D03*
X25736Y1969D02*
D03*
Y15748D02*
D03*
X271799Y188976D02*
D03*
D68*
X38260Y111882D02*
D03*
X247260Y332382D02*
D03*
Y321382D02*
D03*
Y310382D02*
D03*
Y299382D02*
D03*
X236681Y167008D02*
D03*
X38260Y162382D02*
D03*
X312760Y224882D02*
D03*
X85106Y77087D02*
D03*
X65736Y1969D02*
D03*
Y15748D02*
D03*
X239560Y65982D02*
D03*
X311799Y188976D02*
D03*
D69*
X22436Y60824D02*
D03*
X68499Y60824D02*
D03*
D70*
X35468Y88383D02*
D03*
Y31296D02*
D03*
X265360Y55382D02*
D03*
X284985Y91050D02*
D03*
X28260Y144382D02*
D03*
Y128882D02*
D03*
X284985Y75550D02*
D03*
X323760Y286882D02*
D03*
D71*
X308760Y352382D02*
D03*
D72*
Y302382D02*
D03*
D73*
X107760Y346882D02*
D03*
X97760D02*
D03*
X87760D02*
D03*
X26760D02*
D03*
X36760D02*
D03*
X46760D02*
D03*
D74*
X77760D02*
D03*
X16760D02*
D03*
D75*
X260760D02*
D03*
X280760D02*
D03*
X270760D02*
D03*
X110260Y185882D02*
D03*
X339043Y304055D02*
D03*
Y338504D02*
D03*
D76*
X250760Y346882D02*
D03*
D77*
X236681Y207008D02*
D03*
X85106Y37087D02*
D03*
X239560Y25982D02*
D03*
D78*
X344358Y123150D02*
D03*
X254673D02*
D03*
D79*
X337075Y45433D02*
D03*
Y88898D02*
D03*
X354791Y88740D02*
D03*
Y45433D02*
D03*
D80*
X125260Y8020D02*
D03*
X105260D02*
D03*
X115260Y12744D02*
D03*
D81*
X110260Y175882D02*
D03*
X339043Y314055D02*
D03*
Y348504D02*
D03*
D82*
X206130Y287165D02*
D03*
Y277165D02*
D03*
Y267165D02*
D03*
Y257165D02*
D03*
Y247165D02*
D03*
Y237165D02*
D03*
Y227165D02*
D03*
Y217165D02*
D03*
Y207165D02*
D03*
Y197165D02*
D03*
Y187165D02*
D03*
Y177165D02*
D03*
Y167165D02*
D03*
Y157165D02*
D03*
Y147165D02*
D03*
Y137165D02*
D03*
Y127165D02*
D03*
Y117165D02*
D03*
Y107165D02*
D03*
Y97165D02*
D03*
X146130Y287165D02*
D03*
Y277165D02*
D03*
Y267165D02*
D03*
Y257165D02*
D03*
Y247165D02*
D03*
Y237165D02*
D03*
Y227165D02*
D03*
Y217165D02*
D03*
Y207165D02*
D03*
Y197165D02*
D03*
Y187165D02*
D03*
Y177165D02*
D03*
Y167165D02*
D03*
Y157165D02*
D03*
Y147165D02*
D03*
Y137165D02*
D03*
Y127165D02*
D03*
Y117165D02*
D03*
Y107165D02*
D03*
D83*
Y97165D02*
D03*
D84*
X150798Y28861D02*
D03*
X201585D02*
D03*
D85*
X-11350Y370079D02*
D03*
Y0D02*
D03*
X358728D02*
D03*
Y370079D02*
D03*
D86*
X269019Y15749D02*
D03*
X303019Y788D02*
D03*
Y15749D02*
D03*
X269019Y788D02*
D03*
M02*
