G04*
G04 #@! TF.GenerationSoftware,Altium Limited,Altium Designer,22.0.2 (36)*
G04*
G04 Layer_Color=2752767*
%FSLAX25Y25*%
%MOIN*%
G70*
G04*
G04 #@! TF.SameCoordinates,D467B77E-6E5F-44E5-9B52-D7AE6B4A5D67*
G04*
G04*
G04 #@! TF.FilePolarity,Positive*
G04*
G01*
G75*
%ADD90C,0.00200*%
%ADD91C,0.00267*%
%ADD92C,0.00133*%
D90*
X50973Y214924D02*
Y216524D01*
X49373D01*
Y214924D01*
X50973D01*
Y224924D02*
Y226524D01*
X49373D01*
Y224924D01*
X50973D01*
Y234924D02*
Y236524D01*
X49373D01*
Y234924D01*
X50973D01*
Y244924D02*
Y246524D01*
X49373D01*
Y244924D01*
X50973D01*
Y254924D02*
Y256524D01*
X49373D01*
Y254924D01*
X50973D01*
Y264924D02*
Y266524D01*
X49373D01*
Y264924D01*
X50973D01*
Y274924D02*
Y276524D01*
X49373D01*
Y274924D01*
X50973D01*
Y284924D02*
Y286524D01*
X49373D01*
Y284924D01*
X50973D01*
X110973Y214924D02*
Y216524D01*
X109373D01*
Y214924D01*
X110973D01*
Y224924D02*
Y226524D01*
X109373D01*
Y224924D01*
X110973D01*
Y234924D02*
Y236524D01*
X109373D01*
Y234924D01*
X110973D01*
Y244924D02*
Y246524D01*
X109373D01*
Y244924D01*
X110973D01*
Y254924D02*
Y256524D01*
X109373D01*
Y254924D01*
X110973D01*
Y264924D02*
Y266524D01*
X109373D01*
Y264924D01*
X110973D01*
Y274924D02*
Y276524D01*
X109373D01*
Y274924D01*
X110973D01*
Y284924D02*
Y286524D01*
X109373D01*
Y284924D01*
X110973D01*
X-1740Y111082D02*
X-940Y112682D01*
X-2540D01*
X-1740Y111082D01*
X38260D02*
X39060Y112682D01*
X37460D01*
X38260Y111082D01*
X22436Y60024D02*
X22036Y60424D01*
X21636D01*
X22036Y60824D01*
X21636Y61224D01*
X22036D01*
X22436Y61624D01*
X22836Y61224D01*
X23236D01*
X22836Y60824D01*
X23236Y60424D01*
X22836D01*
X22436Y60024D01*
X68499Y60024D02*
X68099Y60424D01*
X67699D01*
X68099Y60824D01*
X67699Y61224D01*
X68099D01*
X68499Y61624D01*
X68899Y61224D01*
X69299D01*
X68899Y60824D01*
X69299Y60424D01*
X68899D01*
X68499Y60024D01*
X36268Y87583D02*
Y89183D01*
X34668D01*
Y87583D01*
X36268D01*
X56268D02*
Y89183D01*
X54668D01*
Y87583D01*
X56268D01*
X36268Y30496D02*
Y32096D01*
X34668D01*
Y30496D01*
X36268D01*
X46268D02*
Y32096D01*
X44668D01*
Y30496D01*
X46268D01*
X56268D02*
Y32096D01*
X54668D01*
Y30496D01*
X56268D01*
X285785Y90250D02*
Y91850D01*
X284185D01*
Y90250D01*
X285785D01*
X295785D02*
Y91850D01*
X294185D01*
Y90250D01*
X295785D01*
X305785D02*
Y91850D01*
X304185D01*
Y90250D01*
X305785D01*
X309560Y351582D02*
X309160Y352382D01*
X309560Y353182D01*
X308760Y352782D01*
X307960Y353182D01*
X308360Y352382D01*
X307960Y351582D01*
X308760Y351982D01*
X309560Y351582D01*
Y301582D02*
X309160Y302382D01*
X309560Y303182D01*
X308760Y302782D01*
X307960Y303182D01*
X308360Y302382D01*
X307960Y301582D01*
X308760Y301982D01*
X309560Y301582D01*
X108160Y346482D02*
Y346082D01*
X107360D01*
Y346482D01*
X106960D01*
Y347282D01*
X107360D01*
Y347682D01*
X108160D01*
Y347282D01*
X108560D01*
Y346482D01*
X108160D01*
X98160D02*
Y346082D01*
X97360D01*
Y346482D01*
X96960D01*
Y347282D01*
X97360D01*
Y347682D01*
X98160D01*
Y347282D01*
X98560D01*
Y346482D01*
X98160D01*
X88160D02*
Y346082D01*
X87360D01*
Y346482D01*
X86960D01*
Y347282D01*
X87360D01*
Y347682D01*
X88160D01*
Y347282D01*
X88560D01*
Y346482D01*
X88160D01*
X78160D02*
Y346082D01*
X77360D01*
Y346482D01*
X76960D01*
Y347282D01*
X77360D01*
Y347682D01*
X78160D01*
Y347282D01*
X78560D01*
Y346482D01*
X78160D01*
X17160D02*
Y346082D01*
X16360D01*
Y346482D01*
X15960D01*
Y347282D01*
X16360D01*
Y347682D01*
X17160D01*
Y347282D01*
X17560D01*
Y346482D01*
X17160D01*
X27160D02*
Y346082D01*
X26360D01*
Y346482D01*
X25960D01*
Y347282D01*
X26360D01*
Y347682D01*
X27160D01*
Y347282D01*
X27560D01*
Y346482D01*
X27160D01*
X37160D02*
Y346082D01*
X36360D01*
Y346482D01*
X35960D01*
Y347282D01*
X36360D01*
Y347682D01*
X37160D01*
Y347282D01*
X37560D01*
Y346482D01*
X37160D01*
X47160D02*
Y346082D01*
X46360D01*
Y346482D01*
X45960D01*
Y347282D01*
X46360D01*
Y347682D01*
X47160D01*
Y347282D01*
X47560D01*
Y346482D01*
X47160D01*
X261560Y346082D02*
Y347682D01*
X259960D01*
Y346082D01*
X261560D01*
X281560D02*
Y347682D01*
X279960D01*
Y346082D01*
X281560D01*
X271560D02*
Y347682D01*
X269960D01*
Y346082D01*
X271560D01*
X251560D02*
Y347682D01*
X249960D01*
Y346082D01*
X251560D01*
X287260Y331582D02*
X288060Y333182D01*
X286460D01*
X287260Y331582D01*
X247260D02*
X248060Y333182D01*
X246460D01*
X247260Y331582D01*
X287260Y320582D02*
X288060Y322182D01*
X286460D01*
X287260Y320582D01*
X247260D02*
X248060Y322182D01*
X246460D01*
X247260Y320582D01*
X287260Y309582D02*
X288060Y311182D01*
X286460D01*
X287260Y309582D01*
X247260D02*
X248060Y311182D01*
X246460D01*
X247260Y309582D01*
X287260Y298582D02*
X288060Y300182D01*
X286460D01*
X287260Y298582D01*
X247260D02*
X248060Y300182D01*
X246460D01*
X247260Y298582D01*
X236681Y206208D02*
X237481Y207808D01*
X235881D01*
X236681Y206208D01*
Y166208D02*
X237481Y167808D01*
X235881D01*
X236681Y166208D01*
X280316Y261011D02*
Y262611D01*
X278716D01*
Y261011D01*
X280316D01*
X300316D02*
Y262611D01*
X298716D01*
Y261011D01*
X300316D01*
X330316D02*
Y262611D01*
X328716D01*
Y261011D01*
X330316D01*
X320316D02*
Y262611D01*
X318716D01*
Y261011D01*
X320316D01*
X310316D02*
Y262611D01*
X308716D01*
Y261011D01*
X310316D01*
X290316Y261011D02*
Y262611D01*
X288716D01*
Y261011D01*
X290316D01*
X270316Y261011D02*
Y262611D01*
X268716D01*
Y261011D01*
X270316D01*
X345158Y122350D02*
X344758D01*
X344358Y122750D01*
X343958Y122350D01*
X343558D01*
Y122750D01*
X343958Y123150D01*
X343558Y123550D01*
Y123950D01*
X343958D01*
X344358Y123550D01*
X344758Y123950D01*
X345158D01*
Y123550D01*
X344758Y123150D01*
X345158Y122750D01*
Y122350D01*
X255473D02*
X255073D01*
X254673Y122750D01*
X254273Y122350D01*
X253873D01*
Y122750D01*
X254273Y123150D01*
X253873Y123550D01*
Y123950D01*
X254273D01*
X254673Y123550D01*
X255073Y123950D01*
X255473D01*
Y123550D01*
X255073Y123150D01*
X255473Y122750D01*
Y122350D01*
X337875Y44633D02*
Y46233D01*
X336275D01*
Y44633D01*
X337875D01*
Y34633D02*
Y36233D01*
X336275D01*
Y34633D01*
X337875D01*
Y24633D02*
Y26233D01*
X336275D01*
Y24633D01*
X337875D01*
Y88098D02*
Y89698D01*
X336275D01*
Y88098D01*
X337875D01*
Y78098D02*
Y79698D01*
X336275D01*
Y78098D01*
X337875D01*
Y68098D02*
Y69698D01*
X336275D01*
Y68098D01*
X337875D01*
X355591Y87940D02*
Y89540D01*
X353991D01*
Y87940D01*
X355591D01*
Y77940D02*
Y79540D01*
X353991D01*
Y77940D01*
X355591D01*
X355591Y67940D02*
Y69540D01*
X353991D01*
Y67940D01*
X355591D01*
X-1740Y161582D02*
X-940Y163182D01*
X-2540D01*
X-1740Y161582D01*
X38260D02*
X39060Y163182D01*
X37460D01*
X38260Y161582D01*
X29060Y143582D02*
Y145182D01*
X27460D01*
Y143582D01*
X29060D01*
X19060D02*
Y145182D01*
X17460D01*
Y143582D01*
X19060D01*
X9060D02*
Y145182D01*
X7460D01*
Y143582D01*
X9060D01*
X29060Y128082D02*
Y129682D01*
X27460D01*
Y128082D01*
X29060D01*
X19060D02*
Y129682D01*
X17460D01*
Y128082D01*
X19060D01*
X9060D02*
Y129682D01*
X7460D01*
Y128082D01*
X9060D01*
X125260Y7220D02*
X126060Y8820D01*
X124460D01*
X125260Y7220D01*
X105260D02*
X106060Y8820D01*
X104460D01*
X105260Y7220D01*
X115260Y11944D02*
X116060Y13544D01*
X114460D01*
X115260Y11944D01*
X272760Y224082D02*
X273560Y225682D01*
X271960D01*
X272760Y224082D01*
X312760D02*
X313560Y225682D01*
X311960D01*
X312760Y224082D01*
X47560Y323582D02*
Y325182D01*
X45960D01*
Y323582D01*
X47560D01*
X17560D02*
Y325182D01*
X15960D01*
Y323582D01*
X17560D01*
X27560D02*
Y325182D01*
X25960D01*
Y323582D01*
X27560D01*
X37560D02*
Y325182D01*
X35960D01*
Y323582D01*
X37560D01*
X111060Y185082D02*
Y186682D01*
X109460D01*
Y185082D01*
X111060D01*
Y175082D02*
Y176682D01*
X109460D01*
Y175082D01*
X111060D01*
X85106Y36287D02*
X85906Y37887D01*
X84306D01*
X85106Y36287D01*
Y76287D02*
X85906Y77887D01*
X84306D01*
X85106Y76287D01*
X25736Y1168D02*
X26536Y2768D01*
X24936D01*
X25736Y1168D01*
X65736D02*
X66536Y2768D01*
X64936D01*
X65736Y1168D01*
X25736Y14948D02*
X26536Y16548D01*
X24936D01*
X25736Y14948D01*
X65736D02*
X66536Y16548D01*
X64936D01*
X65736Y14948D01*
X355591Y44633D02*
Y46233D01*
X353991D01*
Y44633D01*
X355591D01*
Y34633D02*
Y36233D01*
X353991D01*
Y34633D01*
X355591D01*
X355591Y24633D02*
Y26233D01*
X353991D01*
Y24633D01*
X355591D01*
X206930Y287165D02*
X206130Y287965D01*
X205330Y287165D01*
X206130Y286365D01*
X206930Y287165D01*
Y277165D02*
X206130Y277965D01*
X205330Y277165D01*
X206130Y276365D01*
X206930Y277165D01*
Y267165D02*
X206130Y267965D01*
X205330Y267165D01*
X206130Y266365D01*
X206930Y267165D01*
Y257165D02*
X206130Y257965D01*
X205330Y257165D01*
X206130Y256365D01*
X206930Y257165D01*
Y247165D02*
X206130Y247965D01*
X205330Y247165D01*
X206130Y246365D01*
X206930Y247165D01*
Y237165D02*
X206130Y237965D01*
X205330Y237165D01*
X206130Y236365D01*
X206930Y237165D01*
Y227165D02*
X206130Y227965D01*
X205330Y227165D01*
X206130Y226365D01*
X206930Y227165D01*
Y217165D02*
X206130Y217965D01*
X205330Y217165D01*
X206130Y216365D01*
X206930Y217165D01*
Y207165D02*
X206130Y207965D01*
X205330Y207165D01*
X206130Y206365D01*
X206930Y207165D01*
Y197165D02*
X206130Y197965D01*
X205330Y197165D01*
X206130Y196365D01*
X206930Y197165D01*
Y187165D02*
X206130Y187965D01*
X205330Y187165D01*
X206130Y186365D01*
X206930Y187165D01*
Y177165D02*
X206130Y177965D01*
X205330Y177165D01*
X206130Y176365D01*
X206930Y177165D01*
Y167165D02*
X206130Y167965D01*
X205330Y167165D01*
X206130Y166365D01*
X206930Y167165D01*
Y157165D02*
X206130Y157965D01*
X205330Y157165D01*
X206130Y156365D01*
X206930Y157165D01*
Y147165D02*
X206130Y147965D01*
X205330Y147165D01*
X206130Y146365D01*
X206930Y147165D01*
Y137165D02*
X206130Y137965D01*
X205330Y137165D01*
X206130Y136365D01*
X206930Y137165D01*
Y127165D02*
X206130Y127965D01*
X205330Y127165D01*
X206130Y126365D01*
X206930Y127165D01*
Y117165D02*
X206130Y117965D01*
X205330Y117165D01*
X206130Y116365D01*
X206930Y117165D01*
Y107165D02*
X206130Y107965D01*
X205330Y107165D01*
X206130Y106365D01*
X206930Y107165D01*
Y97165D02*
X206130Y97965D01*
X205330Y97165D01*
X206130Y96365D01*
X206930Y97165D01*
X146930Y287165D02*
X146130Y287965D01*
X145330Y287165D01*
X146130Y286365D01*
X146930Y287165D01*
Y277165D02*
X146130Y277965D01*
X145330Y277165D01*
X146130Y276365D01*
X146930Y277165D01*
Y267165D02*
X146130Y267965D01*
X145330Y267165D01*
X146130Y266365D01*
X146930Y267165D01*
Y257165D02*
X146130Y257965D01*
X145330Y257165D01*
X146130Y256365D01*
X146930Y257165D01*
Y247165D02*
X146130Y247965D01*
X145330Y247165D01*
X146130Y246365D01*
X146930Y247165D01*
Y237165D02*
X146130Y237965D01*
X145330Y237165D01*
X146130Y236365D01*
X146930Y237165D01*
Y227165D02*
X146130Y227965D01*
X145330Y227165D01*
X146130Y226365D01*
X146930Y227165D01*
Y217165D02*
X146130Y217965D01*
X145330Y217165D01*
X146130Y216365D01*
X146930Y217165D01*
Y207165D02*
X146130Y207965D01*
X145330Y207165D01*
X146130Y206365D01*
X146930Y207165D01*
Y197165D02*
X146130Y197965D01*
X145330Y197165D01*
X146130Y196365D01*
X146930Y197165D01*
Y187165D02*
X146130Y187965D01*
X145330Y187165D01*
X146130Y186365D01*
X146930Y187165D01*
Y177165D02*
X146130Y177965D01*
X145330Y177165D01*
X146130Y176365D01*
X146930Y177165D01*
Y167165D02*
X146130Y167965D01*
X145330Y167165D01*
X146130Y166365D01*
X146930Y167165D01*
Y157165D02*
X146130Y157965D01*
X145330Y157165D01*
X146130Y156365D01*
X146930Y157165D01*
Y147165D02*
X146130Y147965D01*
X145330Y147165D01*
X146130Y146365D01*
X146930Y147165D01*
Y137165D02*
X146130Y137965D01*
X145330Y137165D01*
X146130Y136365D01*
X146930Y137165D01*
Y127165D02*
X146130Y127965D01*
X145330Y127165D01*
X146130Y126365D01*
X146930Y127165D01*
Y117165D02*
X146130Y117965D01*
X145330Y117165D01*
X146130Y116365D01*
X146930Y117165D01*
Y107165D02*
X146130Y107965D01*
X145330Y107165D01*
X146130Y106365D01*
X146930Y107165D01*
Y97165D02*
X146130Y97965D01*
X145330Y97165D01*
X146130Y96365D01*
X146930Y97165D01*
X151598Y28061D02*
Y29661D01*
X149998D01*
Y28061D01*
X151598D01*
X151198Y28461D02*
Y29261D01*
X150398D01*
Y28461D01*
X151198D01*
X202385Y28061D02*
Y29661D01*
X200785D01*
Y28061D01*
X202385D01*
X201985Y28461D02*
Y29261D01*
X201185D01*
Y28461D01*
X201985D01*
X285785Y74750D02*
Y76350D01*
X284185D01*
Y74750D01*
X285785D01*
X295785D02*
Y76350D01*
X294185D01*
Y74750D01*
X295785D01*
X305785Y74750D02*
Y76350D01*
X304185D01*
Y74750D01*
X305785D01*
X239560Y25182D02*
X240360Y26782D01*
X238760D01*
X239560Y25182D01*
Y65182D02*
X240360Y66782D01*
X238760D01*
X239560Y65182D01*
X269019Y14949D02*
X269819Y16549D01*
X268219D01*
X269019Y14949D01*
Y15349D02*
X269419Y16149D01*
X268619D01*
X269019Y15349D01*
X303019Y-12D02*
X303819Y1588D01*
X302220D01*
X303019Y-12D01*
Y388D02*
X303419Y1188D01*
X302620D01*
X303019Y388D01*
Y14949D02*
X303819Y16549D01*
X302220D01*
X303019Y14949D01*
Y15349D02*
X303419Y16149D01*
X302620D01*
X303019Y15349D01*
X269019Y-12D02*
X269819Y1588D01*
X268219D01*
X269019Y-12D01*
Y388D02*
X269419Y1188D01*
X268619D01*
X269019Y388D01*
X5560Y264082D02*
Y265682D01*
X3960D01*
Y264082D01*
X5560D01*
Y254082D02*
Y255682D01*
X3960D01*
Y254082D01*
X5560D01*
Y244082D02*
Y245682D01*
X3960D01*
Y244082D01*
X5560D01*
Y234082D02*
Y235682D01*
X3960D01*
Y234082D01*
X5560D01*
Y224082D02*
Y225682D01*
X3960D01*
Y224082D01*
X5560D01*
Y214082D02*
Y215682D01*
X3960D01*
Y214082D01*
X5560D01*
X271799Y188176D02*
X272599Y189776D01*
X270999D01*
X271799Y188176D01*
X311799D02*
X312599Y189776D01*
X310999D01*
X311799Y188176D01*
X324560Y286082D02*
Y287682D01*
X322960D01*
Y286082D01*
X324560D01*
X314560D02*
Y287682D01*
X312960D01*
Y286082D01*
X314560D01*
X304560D02*
Y287682D01*
X302960D01*
Y286082D01*
X304560D01*
X294560D02*
Y287682D01*
X292960D01*
Y286082D01*
X294560D01*
X284560D02*
Y287682D01*
X282960D01*
Y286082D01*
X284560D01*
X274560D02*
Y287682D01*
X272960D01*
Y286082D01*
X274560D01*
X339843Y303255D02*
Y304855D01*
X338243D01*
Y303255D01*
X339843D01*
Y313255D02*
Y314855D01*
X338243D01*
Y313255D01*
X339843D01*
Y337704D02*
Y339304D01*
X338243D01*
Y337704D01*
X339843D01*
Y347704D02*
Y349304D01*
X338243D01*
Y347704D01*
X339843D01*
X76728Y99200D02*
X76328Y99600D01*
X75928D01*
X76328Y100000D01*
X75928Y100400D01*
X76328D01*
X76728Y100800D01*
X77128Y100400D01*
X77528D01*
X77128Y100000D01*
X77528Y99600D01*
X77128D01*
X76728Y99200D01*
Y99600D02*
X76528Y99800D01*
X76328D01*
X76528Y100000D01*
X76328Y100200D01*
X76528D01*
X76728Y100400D01*
X76928Y100200D01*
X77128D01*
X76928Y100000D01*
X77128Y99800D01*
X76928D01*
X76728Y99600D01*
X50728Y121200D02*
X50328Y121600D01*
X49928D01*
X50328Y122000D01*
X49928Y122400D01*
X50328D01*
X50728Y122800D01*
X51128Y122400D01*
X51528D01*
X51128Y122000D01*
X51528Y121600D01*
X51128D01*
X50728Y121200D01*
Y121600D02*
X50528Y121800D01*
X50328D01*
X50528Y122000D01*
X50328Y122200D01*
X50528D01*
X50728Y122400D01*
X50928Y122200D01*
X51128D01*
X50928Y122000D01*
X51128Y121800D01*
X50928D01*
X50728Y121600D01*
X4728Y183200D02*
X4328Y183600D01*
X3928D01*
X4328Y184000D01*
X3928Y184400D01*
X4328D01*
X4728Y184800D01*
X5128Y184400D01*
X5528D01*
X5128Y184000D01*
X5528Y183600D01*
X5128D01*
X4728Y183200D01*
Y183600D02*
X4528Y183800D01*
X4328D01*
X4528Y184000D01*
X4328Y184200D01*
X4528D01*
X4728Y184400D01*
X4928Y184200D01*
X5128D01*
X4928Y184000D01*
X5128Y183800D01*
X4928D01*
X4728Y183600D01*
X-9272Y183200D02*
X-9672Y183600D01*
X-10072D01*
X-9672Y184000D01*
X-10072Y184400D01*
X-9672D01*
X-9272Y184800D01*
X-8872Y184400D01*
X-8472D01*
X-8872Y184000D01*
X-8472Y183600D01*
X-8872D01*
X-9272Y183200D01*
Y183600D02*
X-9472Y183800D01*
X-9672D01*
X-9472Y184000D01*
X-9672Y184200D01*
X-9472D01*
X-9272Y184400D01*
X-9072Y184200D01*
X-8872D01*
X-9072Y184000D01*
X-8872Y183800D01*
X-9072D01*
X-9272Y183600D01*
Y197200D02*
X-9672Y197600D01*
X-10072D01*
X-9672Y198000D01*
X-10072Y198400D01*
X-9672D01*
X-9272Y198800D01*
X-8872Y198400D01*
X-8472D01*
X-8872Y198000D01*
X-8472Y197600D01*
X-8872D01*
X-9272Y197200D01*
Y197600D02*
X-9472Y197800D01*
X-9672D01*
X-9472Y198000D01*
X-9672Y198200D01*
X-9472D01*
X-9272Y198400D01*
X-9072Y198200D01*
X-8872D01*
X-9072Y198000D01*
X-8872Y197800D01*
X-9072D01*
X-9272Y197600D01*
X4728Y197200D02*
X4328Y197600D01*
X3928D01*
X4328Y198000D01*
X3928Y198400D01*
X4328D01*
X4728Y198800D01*
X5128Y198400D01*
X5528D01*
X5128Y198000D01*
X5528Y197600D01*
X5128D01*
X4728Y197200D01*
Y197600D02*
X4528Y197800D01*
X4328D01*
X4528Y198000D01*
X4328Y198200D01*
X4528D01*
X4728Y198400D01*
X4928Y198200D01*
X5128D01*
X4928Y198000D01*
X5128Y197800D01*
X4928D01*
X4728Y197600D01*
X174728Y201200D02*
X174328Y201600D01*
X173928D01*
X174328Y202000D01*
X173928Y202400D01*
X174328D01*
X174728Y202800D01*
X175128Y202400D01*
X175528D01*
X175128Y202000D01*
X175528Y201600D01*
X175128D01*
X174728Y201200D01*
Y201600D02*
X174528Y201800D01*
X174328D01*
X174528Y202000D01*
X174328Y202200D01*
X174528D01*
X174728Y202400D01*
X174928Y202200D01*
X175128D01*
X174928Y202000D01*
X175128Y201800D01*
X174928D01*
X174728Y201600D01*
X162728Y201200D02*
X162328Y201600D01*
X161928D01*
X162328Y202000D01*
X161928Y202400D01*
X162328D01*
X162728Y202800D01*
X163128Y202400D01*
X163528D01*
X163128Y202000D01*
X163528Y201600D01*
X163128D01*
X162728Y201200D01*
Y201600D02*
X162528Y201800D01*
X162328D01*
X162528Y202000D01*
X162328Y202200D01*
X162528D01*
X162728Y202400D01*
X162928Y202200D01*
X163128D01*
X162928Y202000D01*
X163128Y201800D01*
X162928D01*
X162728Y201600D01*
Y213200D02*
X162328Y213600D01*
X161928D01*
X162328Y214000D01*
X161928Y214400D01*
X162328D01*
X162728Y214800D01*
X163128Y214400D01*
X163528D01*
X163128Y214000D01*
X163528Y213600D01*
X163128D01*
X162728Y213200D01*
Y213600D02*
X162528Y213800D01*
X162328D01*
X162528Y214000D01*
X162328Y214200D01*
X162528D01*
X162728Y214400D01*
X162928Y214200D01*
X163128D01*
X162928Y214000D01*
X163128Y213800D01*
X162928D01*
X162728Y213600D01*
X174728Y213200D02*
X174328Y213600D01*
X173928D01*
X174328Y214000D01*
X173928Y214400D01*
X174328D01*
X174728Y214800D01*
X175128Y214400D01*
X175528D01*
X175128Y214000D01*
X175528Y213600D01*
X175128D01*
X174728Y213200D01*
Y213600D02*
X174528Y213800D01*
X174328D01*
X174528Y214000D01*
X174328Y214200D01*
X174528D01*
X174728Y214400D01*
X174928Y214200D01*
X175128D01*
X174928Y214000D01*
X175128Y213800D01*
X174928D01*
X174728Y213600D01*
X136728Y87200D02*
X136328Y87600D01*
X135928D01*
X136328Y88000D01*
X135928Y88400D01*
X136328D01*
X136728Y88800D01*
X137128Y88400D01*
X137528D01*
X137128Y88000D01*
X137528Y87600D01*
X137128D01*
X136728Y87200D01*
Y87600D02*
X136528Y87800D01*
X136328D01*
X136528Y88000D01*
X136328Y88200D01*
X136528D01*
X136728Y88400D01*
X136928Y88200D01*
X137128D01*
X136928Y88000D01*
X137128Y87800D01*
X136928D01*
X136728Y87600D01*
X146728Y87200D02*
X146328Y87600D01*
X145928D01*
X146328Y88000D01*
X145928Y88400D01*
X146328D01*
X146728Y88800D01*
X147128Y88400D01*
X147528D01*
X147128Y88000D01*
X147528Y87600D01*
X147128D01*
X146728Y87200D01*
Y87600D02*
X146528Y87800D01*
X146328D01*
X146528Y88000D01*
X146328Y88200D01*
X146528D01*
X146728Y88400D01*
X146928Y88200D01*
X147128D01*
X146928Y88000D01*
X147128Y87800D01*
X146928D01*
X146728Y87600D01*
X138728Y19200D02*
X138328Y19600D01*
X137928D01*
X138328Y20000D01*
X137928Y20400D01*
X138328D01*
X138728Y20800D01*
X139128Y20400D01*
X139528D01*
X139128Y20000D01*
X139528Y19600D01*
X139128D01*
X138728Y19200D01*
Y19600D02*
X138528Y19800D01*
X138328D01*
X138528Y20000D01*
X138328Y20200D01*
X138528D01*
X138728Y20400D01*
X138928Y20200D01*
X139128D01*
X138928Y20000D01*
X139128Y19800D01*
X138928D01*
X138728Y19600D01*
Y33200D02*
X138328Y33600D01*
X137928D01*
X138328Y34000D01*
X137928Y34400D01*
X138328D01*
X138728Y34800D01*
X139128Y34400D01*
X139528D01*
X139128Y34000D01*
X139528Y33600D01*
X139128D01*
X138728Y33200D01*
Y33600D02*
X138528Y33800D01*
X138328D01*
X138528Y34000D01*
X138328Y34200D01*
X138528D01*
X138728Y34400D01*
X138928Y34200D01*
X139128D01*
X138928Y34000D01*
X139128Y33800D01*
X138928D01*
X138728Y33600D01*
X286728Y-6800D02*
X286328Y-6400D01*
X285928D01*
X286328Y-6000D01*
X285928Y-5600D01*
X286328D01*
X286728Y-5200D01*
X287128Y-5600D01*
X287528D01*
X287128Y-6000D01*
X287528Y-6400D01*
X287128D01*
X286728Y-6800D01*
Y-6400D02*
X286528Y-6200D01*
X286328D01*
X286528Y-6000D01*
X286328Y-5800D01*
X286528D01*
X286728Y-5600D01*
X286928Y-5800D01*
X287128D01*
X286928Y-6000D01*
X287128Y-6200D01*
X286928D01*
X286728Y-6400D01*
Y-800D02*
X286328Y-400D01*
X285928D01*
X286328Y0D01*
X285928Y400D01*
X286328D01*
X286728Y800D01*
X287128Y400D01*
X287528D01*
X287128Y0D01*
X287528Y-400D01*
X287128D01*
X286728Y-800D01*
Y-400D02*
X286528Y-200D01*
X286328D01*
X286528Y0D01*
X286328Y200D01*
X286528D01*
X286728Y400D01*
X286928Y200D01*
X287128D01*
X286928Y0D01*
X287128Y-200D01*
X286928D01*
X286728Y-400D01*
X246728Y13200D02*
X246328Y13600D01*
X245928D01*
X246328Y14000D01*
X245928Y14400D01*
X246328D01*
X246728Y14800D01*
X247128Y14400D01*
X247528D01*
X247128Y14000D01*
X247528Y13600D01*
X247128D01*
X246728Y13200D01*
Y13600D02*
X246528Y13800D01*
X246328D01*
X246528Y14000D01*
X246328Y14200D01*
X246528D01*
X246728Y14400D01*
X246928Y14200D01*
X247128D01*
X246928Y14000D01*
X247128Y13800D01*
X246928D01*
X246728Y13600D01*
Y-800D02*
X246328Y-400D01*
X245928D01*
X246328Y0D01*
X245928Y400D01*
X246328D01*
X246728Y800D01*
X247128Y400D01*
X247528D01*
X247128Y0D01*
X247528Y-400D01*
X247128D01*
X246728Y-800D01*
Y-400D02*
X246528Y-200D01*
X246328D01*
X246528Y0D01*
X246328Y200D01*
X246528D01*
X246728Y400D01*
X246928Y200D01*
X247128D01*
X246928Y0D01*
X247128Y-200D01*
X246928D01*
X246728Y-400D01*
X338728Y153200D02*
X338328Y153600D01*
X337928D01*
X338328Y154000D01*
X337928Y154400D01*
X338328D01*
X338728Y154800D01*
X339128Y154400D01*
X339528D01*
X339128Y154000D01*
X339528Y153600D01*
X339128D01*
X338728Y153200D01*
Y153600D02*
X338528Y153800D01*
X338328D01*
X338528Y154000D01*
X338328Y154200D01*
X338528D01*
X338728Y154400D01*
X338928Y154200D01*
X339128D01*
X338928Y154000D01*
X339128Y153800D01*
X338928D01*
X338728Y153600D01*
X344728Y103200D02*
X344328Y103600D01*
X343928D01*
X344328Y104000D01*
X343928Y104400D01*
X344328D01*
X344728Y104800D01*
X345128Y104400D01*
X345528D01*
X345128Y104000D01*
X345528Y103600D01*
X345128D01*
X344728Y103200D01*
Y103600D02*
X344528Y103800D01*
X344328D01*
X344528Y104000D01*
X344328Y104200D01*
X344528D01*
X344728Y104400D01*
X344928Y104200D01*
X345128D01*
X344928Y104000D01*
X345128Y103800D01*
X344928D01*
X344728Y103600D01*
X236728Y235200D02*
X236328Y235600D01*
X235928D01*
X236328Y236000D01*
X235928Y236400D01*
X236328D01*
X236728Y236800D01*
X237128Y236400D01*
X237528D01*
X237128Y236000D01*
X237528Y235600D01*
X237128D01*
X236728Y235200D01*
Y235600D02*
X236528Y235800D01*
X236328D01*
X236528Y236000D01*
X236328Y236200D01*
X236528D01*
X236728Y236400D01*
X236928Y236200D01*
X237128D01*
X236928Y236000D01*
X237128Y235800D01*
X236928D01*
X236728Y235600D01*
Y247200D02*
X236328Y247600D01*
X235928D01*
X236328Y248000D01*
X235928Y248400D01*
X236328D01*
X236728Y248800D01*
X237128Y248400D01*
X237528D01*
X237128Y248000D01*
X237528Y247600D01*
X237128D01*
X236728Y247200D01*
Y247600D02*
X236528Y247800D01*
X236328D01*
X236528Y248000D01*
X236328Y248200D01*
X236528D01*
X236728Y248400D01*
X236928Y248200D01*
X237128D01*
X236928Y248000D01*
X237128Y247800D01*
X236928D01*
X236728Y247600D01*
X293228Y325200D02*
X292828Y325600D01*
X292428D01*
X292828Y326000D01*
X292428Y326400D01*
X292828D01*
X293228Y326800D01*
X293628Y326400D01*
X294028D01*
X293628Y326000D01*
X294028Y325600D01*
X293628D01*
X293228Y325200D01*
Y325600D02*
X293028Y325800D01*
X292828D01*
X293028Y326000D01*
X292828Y326200D01*
X293028D01*
X293228Y326400D01*
X293428Y326200D01*
X293628D01*
X293428Y326000D01*
X293628Y325800D01*
X293428D01*
X293228Y325600D01*
X330728Y325200D02*
X330328Y325600D01*
X329928D01*
X330328Y326000D01*
X329928Y326400D01*
X330328D01*
X330728Y326800D01*
X331128Y326400D01*
X331528D01*
X331128Y326000D01*
X331528Y325600D01*
X331128D01*
X330728Y325200D01*
Y325600D02*
X330528Y325800D01*
X330328D01*
X330528Y326000D01*
X330328Y326200D01*
X330528D01*
X330728Y326400D01*
X330928Y326200D01*
X331128D01*
X330928Y326000D01*
X331128Y325800D01*
X330928D01*
X330728Y325600D01*
X320728Y325200D02*
X320328Y325600D01*
X319928D01*
X320328Y326000D01*
X319928Y326400D01*
X320328D01*
X320728Y326800D01*
X321128Y326400D01*
X321528D01*
X321128Y326000D01*
X321528Y325600D01*
X321128D01*
X320728Y325200D01*
Y325600D02*
X320528Y325800D01*
X320328D01*
X320528Y326000D01*
X320328Y326200D01*
X320528D01*
X320728Y326400D01*
X320928Y326200D01*
X321128D01*
X320928Y326000D01*
X321128Y325800D01*
X320928D01*
X320728Y325600D01*
X296728Y341200D02*
X296328Y341600D01*
X295928D01*
X296328Y342000D01*
X295928Y342400D01*
X296328D01*
X296728Y342800D01*
X297128Y342400D01*
X297528D01*
X297128Y342000D01*
X297528Y341600D01*
X297128D01*
X296728Y341200D01*
Y341600D02*
X296528Y341800D01*
X296328D01*
X296528Y342000D01*
X296328Y342200D01*
X296528D01*
X296728Y342400D01*
X296928Y342200D01*
X297128D01*
X296928Y342000D01*
X297128Y341800D01*
X296928D01*
X296728Y341600D01*
Y349200D02*
X296328Y349600D01*
X295928D01*
X296328Y350000D01*
X295928Y350400D01*
X296328D01*
X296728Y350800D01*
X297128Y350400D01*
X297528D01*
X297128Y350000D01*
X297528Y349600D01*
X297128D01*
X296728Y349200D01*
Y349600D02*
X296528Y349800D01*
X296328D01*
X296528Y350000D01*
X296328Y350200D01*
X296528D01*
X296728Y350400D01*
X296928Y350200D01*
X297128D01*
X296928Y350000D01*
X297128Y349800D01*
X296928D01*
X296728Y349600D01*
X32728Y367200D02*
X32328Y367600D01*
X31928D01*
X32328Y368000D01*
X31928Y368400D01*
X32328D01*
X32728Y368800D01*
X33128Y368400D01*
X33528D01*
X33128Y368000D01*
X33528Y367600D01*
X33128D01*
X32728Y367200D01*
Y367600D02*
X32528Y367800D01*
X32328D01*
X32528Y368000D01*
X32328Y368200D01*
X32528D01*
X32728Y368400D01*
X32928Y368200D01*
X33128D01*
X32928Y368000D01*
X33128Y367800D01*
X32928D01*
X32728Y367600D01*
X92728Y367200D02*
X92328Y367600D01*
X91928D01*
X92328Y368000D01*
X91928Y368400D01*
X92328D01*
X92728Y368800D01*
X93128Y368400D01*
X93528D01*
X93128Y368000D01*
X93528Y367600D01*
X93128D01*
X92728Y367200D01*
Y367600D02*
X92528Y367800D01*
X92328D01*
X92528Y368000D01*
X92328Y368200D01*
X92528D01*
X92728Y368400D01*
X92928Y368200D01*
X93128D01*
X92928Y368000D01*
X93128Y367800D01*
X92928D01*
X92728Y367600D01*
X156728Y367200D02*
X156328Y367600D01*
X155928D01*
X156328Y368000D01*
X155928Y368400D01*
X156328D01*
X156728Y368800D01*
X157128Y368400D01*
X157528D01*
X157128Y368000D01*
X157528Y367600D01*
X157128D01*
X156728Y367200D01*
Y367600D02*
X156528Y367800D01*
X156328D01*
X156528Y368000D01*
X156328Y368200D01*
X156528D01*
X156728Y368400D01*
X156928Y368200D01*
X157128D01*
X156928Y368000D01*
X157128Y367800D01*
X156928D01*
X156728Y367600D01*
X192728Y367200D02*
X192328Y367600D01*
X191928D01*
X192328Y368000D01*
X191928Y368400D01*
X192328D01*
X192728Y368800D01*
X193128Y368400D01*
X193528D01*
X193128Y368000D01*
X193528Y367600D01*
X193128D01*
X192728Y367200D01*
Y367600D02*
X192528Y367800D01*
X192328D01*
X192528Y368000D01*
X192328Y368200D01*
X192528D01*
X192728Y368400D01*
X192928Y368200D01*
X193128D01*
X192928Y368000D01*
X193128Y367800D01*
X192928D01*
X192728Y367600D01*
X82728Y285200D02*
X82328Y285600D01*
X81928D01*
X82328Y286000D01*
X81928Y286400D01*
X82328D01*
X82728Y286800D01*
X83128Y286400D01*
X83528D01*
X83128Y286000D01*
X83528Y285600D01*
X83128D01*
X82728Y285200D01*
Y285600D02*
X82528Y285800D01*
X82328D01*
X82528Y286000D01*
X82328Y286200D01*
X82528D01*
X82728Y286400D01*
X82928Y286200D01*
X83128D01*
X82928Y286000D01*
X83128Y285800D01*
X82928D01*
X82728Y285600D01*
X94728Y285200D02*
X94328Y285600D01*
X93928D01*
X94328Y286000D01*
X93928Y286400D01*
X94328D01*
X94728Y286800D01*
X95128Y286400D01*
X95528D01*
X95128Y286000D01*
X95528Y285600D01*
X95128D01*
X94728Y285200D01*
Y285600D02*
X94528Y285800D01*
X94328D01*
X94528Y286000D01*
X94328Y286200D01*
X94528D01*
X94728Y286400D01*
X94928Y286200D01*
X95128D01*
X94928Y286000D01*
X95128Y285800D01*
X94928D01*
X94728Y285600D01*
X66728Y165200D02*
X66328Y165600D01*
X65928D01*
X66328Y166000D01*
X65928Y166400D01*
X66328D01*
X66728Y166800D01*
X67128Y166400D01*
X67528D01*
X67128Y166000D01*
X67528Y165600D01*
X67128D01*
X66728Y165200D01*
Y165600D02*
X66528Y165800D01*
X66328D01*
X66528Y166000D01*
X66328Y166200D01*
X66528D01*
X66728Y166400D01*
X66928Y166200D01*
X67128D01*
X66928Y166000D01*
X67128Y165800D01*
X66928D01*
X66728Y165600D01*
X56728Y165200D02*
X56328Y165600D01*
X55928D01*
X56328Y166000D01*
X55928Y166400D01*
X56328D01*
X56728Y166800D01*
X57128Y166400D01*
X57528D01*
X57128Y166000D01*
X57528Y165600D01*
X57128D01*
X56728Y165200D01*
Y165600D02*
X56528Y165800D01*
X56328D01*
X56528Y166000D01*
X56328Y166200D01*
X56528D01*
X56728Y166400D01*
X56928Y166200D01*
X57128D01*
X56928Y166000D01*
X57128Y165800D01*
X56928D01*
X56728Y165600D01*
Y175200D02*
X56328Y175600D01*
X55928D01*
X56328Y176000D01*
X55928Y176400D01*
X56328D01*
X56728Y176800D01*
X57128Y176400D01*
X57528D01*
X57128Y176000D01*
X57528Y175600D01*
X57128D01*
X56728Y175200D01*
Y175600D02*
X56528Y175800D01*
X56328D01*
X56528Y176000D01*
X56328Y176200D01*
X56528D01*
X56728Y176400D01*
X56928Y176200D01*
X57128D01*
X56928Y176000D01*
X57128Y175800D01*
X56928D01*
X56728Y175600D01*
X66728Y175200D02*
X66328Y175600D01*
X65928D01*
X66328Y176000D01*
X65928Y176400D01*
X66328D01*
X66728Y176800D01*
X67128Y176400D01*
X67528D01*
X67128Y176000D01*
X67528Y175600D01*
X67128D01*
X66728Y175200D01*
Y175600D02*
X66528Y175800D01*
X66328D01*
X66528Y176000D01*
X66328Y176200D01*
X66528D01*
X66728Y176400D01*
X66928Y176200D01*
X67128D01*
X66928Y176000D01*
X67128Y175800D01*
X66928D01*
X66728Y175600D01*
X2728Y73200D02*
X2328Y73600D01*
X1928D01*
X2328Y74000D01*
X1928Y74400D01*
X2328D01*
X2728Y74800D01*
X3128Y74400D01*
X3528D01*
X3128Y74000D01*
X3528Y73600D01*
X3128D01*
X2728Y73200D01*
Y73600D02*
X2528Y73800D01*
X2328D01*
X2528Y74000D01*
X2328Y74200D01*
X2528D01*
X2728Y74400D01*
X2928Y74200D01*
X3128D01*
X2928Y74000D01*
X3128Y73800D01*
X2928D01*
X2728Y73600D01*
X-9272Y73200D02*
X-9672Y73600D01*
X-10072D01*
X-9672Y74000D01*
X-10072Y74400D01*
X-9672D01*
X-9272Y74800D01*
X-8872Y74400D01*
X-8472D01*
X-8872Y74000D01*
X-8472Y73600D01*
X-8872D01*
X-9272Y73200D01*
Y73600D02*
X-9472Y73800D01*
X-9672D01*
X-9472Y74000D01*
X-9672Y74200D01*
X-9472D01*
X-9272Y74400D01*
X-9072Y74200D01*
X-8872D01*
X-9072Y74000D01*
X-8872Y73800D01*
X-9072D01*
X-9272Y73600D01*
Y85200D02*
X-9672Y85600D01*
X-10072D01*
X-9672Y86000D01*
X-10072Y86400D01*
X-9672D01*
X-9272Y86800D01*
X-8872Y86400D01*
X-8472D01*
X-8872Y86000D01*
X-8472Y85600D01*
X-8872D01*
X-9272Y85200D01*
Y85600D02*
X-9472Y85800D01*
X-9672D01*
X-9472Y86000D01*
X-9672Y86200D01*
X-9472D01*
X-9272Y86400D01*
X-9072Y86200D01*
X-8872D01*
X-9072Y86000D01*
X-8872Y85800D01*
X-9072D01*
X-9272Y85600D01*
X2728Y85200D02*
X2328Y85600D01*
X1928D01*
X2328Y86000D01*
X1928Y86400D01*
X2328D01*
X2728Y86800D01*
X3128Y86400D01*
X3528D01*
X3128Y86000D01*
X3528Y85600D01*
X3128D01*
X2728Y85200D01*
Y85600D02*
X2528Y85800D01*
X2328D01*
X2528Y86000D01*
X2328Y86200D01*
X2528D01*
X2728Y86400D01*
X2928Y86200D01*
X3128D01*
X2928Y86000D01*
X3128Y85800D01*
X2928D01*
X2728Y85600D01*
X-13272Y13200D02*
X-13672Y13600D01*
X-14072D01*
X-13672Y14000D01*
X-14072Y14400D01*
X-13672D01*
X-13272Y14800D01*
X-12872Y14400D01*
X-12472D01*
X-12872Y14000D01*
X-12472Y13600D01*
X-12872D01*
X-13272Y13200D01*
Y13600D02*
X-13472Y13800D01*
X-13672D01*
X-13472Y14000D01*
X-13672Y14200D01*
X-13472D01*
X-13272Y14400D01*
X-13072Y14200D01*
X-12872D01*
X-13072Y14000D01*
X-12872Y13800D01*
X-13072D01*
X-13272Y13600D01*
X-1272Y13200D02*
X-1672Y13600D01*
X-2072D01*
X-1672Y14000D01*
X-2072Y14400D01*
X-1672D01*
X-1272Y14800D01*
X-872Y14400D01*
X-472D01*
X-872Y14000D01*
X-472Y13600D01*
X-872D01*
X-1272Y13200D01*
Y13600D02*
X-1472Y13800D01*
X-1672D01*
X-1472Y14000D01*
X-1672Y14200D01*
X-1472D01*
X-1272Y14400D01*
X-1072Y14200D01*
X-872D01*
X-1072Y14000D01*
X-872Y13800D01*
X-1072D01*
X-1272Y13600D01*
X-13272Y23200D02*
X-13672Y23600D01*
X-14072D01*
X-13672Y24000D01*
X-14072Y24400D01*
X-13672D01*
X-13272Y24800D01*
X-12872Y24400D01*
X-12472D01*
X-12872Y24000D01*
X-12472Y23600D01*
X-12872D01*
X-13272Y23200D01*
Y23600D02*
X-13472Y23800D01*
X-13672D01*
X-13472Y24000D01*
X-13672Y24200D01*
X-13472D01*
X-13272Y24400D01*
X-13072Y24200D01*
X-12872D01*
X-13072Y24000D01*
X-12872Y23800D01*
X-13072D01*
X-13272Y23600D01*
X-1272Y23200D02*
X-1672Y23600D01*
X-2072D01*
X-1672Y24000D01*
X-2072Y24400D01*
X-1672D01*
X-1272Y24800D01*
X-872Y24400D01*
X-472D01*
X-872Y24000D01*
X-472Y23600D01*
X-872D01*
X-1272Y23200D01*
Y23600D02*
X-1472Y23800D01*
X-1672D01*
X-1472Y24000D01*
X-1672Y24200D01*
X-1472D01*
X-1272Y24400D01*
X-1072Y24200D01*
X-872D01*
X-1072Y24000D01*
X-872Y23800D01*
X-1072D01*
X-1272Y23600D01*
X160728Y9200D02*
X160328Y9600D01*
X159928D01*
X160328Y10000D01*
X159928Y10400D01*
X160328D01*
X160728Y10800D01*
X161128Y10400D01*
X161528D01*
X161128Y10000D01*
X161528Y9600D01*
X161128D01*
X160728Y9200D01*
Y9600D02*
X160528Y9800D01*
X160328D01*
X160528Y10000D01*
X160328Y10200D01*
X160528D01*
X160728Y10400D01*
X160928Y10200D01*
X161128D01*
X160928Y10000D01*
X161128Y9800D01*
X160928D01*
X160728Y9600D01*
X196728Y9200D02*
X196328Y9600D01*
X195928D01*
X196328Y10000D01*
X195928Y10400D01*
X196328D01*
X196728Y10800D01*
X197128Y10400D01*
X197528D01*
X197128Y10000D01*
X197528Y9600D01*
X197128D01*
X196728Y9200D01*
Y9600D02*
X196528Y9800D01*
X196328D01*
X196528Y10000D01*
X196328Y10200D01*
X196528D01*
X196728Y10400D01*
X196928Y10200D01*
X197128D01*
X196928Y10000D01*
X197128Y9800D01*
X196928D01*
X196728Y9600D01*
X104728Y99200D02*
X104328Y99600D01*
X103928D01*
X104328Y100000D01*
X103928Y100400D01*
X104328D01*
X104728Y100800D01*
X105128Y100400D01*
X105528D01*
X105128Y100000D01*
X105528Y99600D01*
X105128D01*
X104728Y99200D01*
Y99600D02*
X104528Y99800D01*
X104328D01*
X104528Y100000D01*
X104328Y100200D01*
X104528D01*
X104728Y100400D01*
X104928Y100200D01*
X105128D01*
X104928Y100000D01*
X105128Y99800D01*
X104928D01*
X104728Y99600D01*
Y81200D02*
X104328Y81600D01*
X103928D01*
X104328Y82000D01*
X103928Y82400D01*
X104328D01*
X104728Y82800D01*
X105128Y82400D01*
X105528D01*
X105128Y82000D01*
X105528Y81600D01*
X105128D01*
X104728Y81200D01*
Y81600D02*
X104528Y81800D01*
X104328D01*
X104528Y82000D01*
X104328Y82200D01*
X104528D01*
X104728Y82400D01*
X104928Y82200D01*
X105128D01*
X104928Y82000D01*
X105128Y81800D01*
X104928D01*
X104728Y81600D01*
X96728Y173200D02*
X96328Y173600D01*
X95928D01*
X96328Y174000D01*
X95928Y174400D01*
X96328D01*
X96728Y174800D01*
X97128Y174400D01*
X97528D01*
X97128Y174000D01*
X97528Y173600D01*
X97128D01*
X96728Y173200D01*
Y173600D02*
X96528Y173800D01*
X96328D01*
X96528Y174000D01*
X96328Y174200D01*
X96528D01*
X96728Y174400D01*
X96928Y174200D01*
X97128D01*
X96928Y174000D01*
X97128Y173800D01*
X96928D01*
X96728Y173600D01*
Y185200D02*
X96328Y185600D01*
X95928D01*
X96328Y186000D01*
X95928Y186400D01*
X96328D01*
X96728Y186800D01*
X97128Y186400D01*
X97528D01*
X97128Y186000D01*
X97528Y185600D01*
X97128D01*
X96728Y185200D01*
Y185600D02*
X96528Y185800D01*
X96328D01*
X96528Y186000D01*
X96328Y186200D01*
X96528D01*
X96728Y186400D01*
X96928Y186200D01*
X97128D01*
X96928Y186000D01*
X97128Y185800D01*
X96928D01*
X96728Y185600D01*
X120728Y153200D02*
X120328Y153600D01*
X119928D01*
X120328Y154000D01*
X119928Y154400D01*
X120328D01*
X120728Y154800D01*
X121128Y154400D01*
X121528D01*
X121128Y154000D01*
X121528Y153600D01*
X121128D01*
X120728Y153200D01*
Y153600D02*
X120528Y153800D01*
X120328D01*
X120528Y154000D01*
X120328Y154200D01*
X120528D01*
X120728Y154400D01*
X120928Y154200D01*
X121128D01*
X120928Y154000D01*
X121128Y153800D01*
X120928D01*
X120728Y153600D01*
X110728Y121200D02*
X110328Y121600D01*
X109928D01*
X110328Y122000D01*
X109928Y122400D01*
X110328D01*
X110728Y122800D01*
X111128Y122400D01*
X111528D01*
X111128Y122000D01*
X111528Y121600D01*
X111128D01*
X110728Y121200D01*
Y121600D02*
X110528Y121800D01*
X110328D01*
X110528Y122000D01*
X110328Y122200D01*
X110528D01*
X110728Y122400D01*
X110928Y122200D01*
X111128D01*
X110928Y122000D01*
X111128Y121800D01*
X110928D01*
X110728Y121600D01*
X70728Y121200D02*
X70328Y121600D01*
X69928D01*
X70328Y122000D01*
X69928Y122400D01*
X70328D01*
X70728Y122800D01*
X71128Y122400D01*
X71528D01*
X71128Y122000D01*
X71528Y121600D01*
X71128D01*
X70728Y121200D01*
Y121600D02*
X70528Y121800D01*
X70328D01*
X70528Y122000D01*
X70328Y122200D01*
X70528D01*
X70728Y122400D01*
X70928Y122200D01*
X71128D01*
X70928Y122000D01*
X71128Y121800D01*
X70928D01*
X70728Y121600D01*
X278728Y123200D02*
X278328Y123600D01*
X277928D01*
X278328Y124000D01*
X277928Y124400D01*
X278328D01*
X278728Y124800D01*
X279128Y124400D01*
X279528D01*
X279128Y124000D01*
X279528Y123600D01*
X279128D01*
X278728Y123200D01*
Y123600D02*
X278528Y123800D01*
X278328D01*
X278528Y124000D01*
X278328Y124200D01*
X278528D01*
X278728Y124400D01*
X278928Y124200D01*
X279128D01*
X278928Y124000D01*
X279128Y123800D01*
X278928D01*
X278728Y123600D01*
X294728Y123200D02*
X294328Y123600D01*
X293928D01*
X294328Y124000D01*
X293928Y124400D01*
X294328D01*
X294728Y124800D01*
X295128Y124400D01*
X295528D01*
X295128Y124000D01*
X295528Y123600D01*
X295128D01*
X294728Y123200D01*
Y123600D02*
X294528Y123800D01*
X294328D01*
X294528Y124000D01*
X294328Y124200D01*
X294528D01*
X294728Y124400D01*
X294928Y124200D01*
X295128D01*
X294928Y124000D01*
X295128Y123800D01*
X294928D01*
X294728Y123600D01*
X296728Y175200D02*
X296328Y175600D01*
X295928D01*
X296328Y176000D01*
X295928Y176400D01*
X296328D01*
X296728Y176800D01*
X297128Y176400D01*
X297528D01*
X297128Y176000D01*
X297528Y175600D01*
X297128D01*
X296728Y175200D01*
Y175600D02*
X296528Y175800D01*
X296328D01*
X296528Y176000D01*
X296328Y176200D01*
X296528D01*
X296728Y176400D01*
X296928Y176200D01*
X297128D01*
X296928Y176000D01*
X297128Y175800D01*
X296928D01*
X296728Y175600D01*
X284728Y175200D02*
X284328Y175600D01*
X283928D01*
X284328Y176000D01*
X283928Y176400D01*
X284328D01*
X284728Y176800D01*
X285128Y176400D01*
X285528D01*
X285128Y176000D01*
X285528Y175600D01*
X285128D01*
X284728Y175200D01*
Y175600D02*
X284528Y175800D01*
X284328D01*
X284528Y176000D01*
X284328Y176200D01*
X284528D01*
X284728Y176400D01*
X284928Y176200D01*
X285128D01*
X284928Y176000D01*
X285128Y175800D01*
X284928D01*
X284728Y175600D01*
Y201200D02*
X284328Y201600D01*
X283928D01*
X284328Y202000D01*
X283928Y202400D01*
X284328D01*
X284728Y202800D01*
X285128Y202400D01*
X285528D01*
X285128Y202000D01*
X285528Y201600D01*
X285128D01*
X284728Y201200D01*
Y201600D02*
X284528Y201800D01*
X284328D01*
X284528Y202000D01*
X284328Y202200D01*
X284528D01*
X284728Y202400D01*
X284928Y202200D01*
X285128D01*
X284928Y202000D01*
X285128Y201800D01*
X284928D01*
X284728Y201600D01*
X296728Y201200D02*
X296328Y201600D01*
X295928D01*
X296328Y202000D01*
X295928Y202400D01*
X296328D01*
X296728Y202800D01*
X297128Y202400D01*
X297528D01*
X297128Y202000D01*
X297528Y201600D01*
X297128D01*
X296728Y201200D01*
Y201600D02*
X296528Y201800D01*
X296328D01*
X296528Y202000D01*
X296328Y202200D01*
X296528D01*
X296728Y202400D01*
X296928Y202200D01*
X297128D01*
X296928Y202000D01*
X297128Y201800D01*
X296928D01*
X296728Y201600D01*
X334728Y179200D02*
X334328Y179600D01*
X333928D01*
X334328Y180000D01*
X333928Y180400D01*
X334328D01*
X334728Y180800D01*
X335128Y180400D01*
X335528D01*
X335128Y180000D01*
X335528Y179600D01*
X335128D01*
X334728Y179200D01*
Y179600D02*
X334528Y179800D01*
X334328D01*
X334528Y180000D01*
X334328Y180200D01*
X334528D01*
X334728Y180400D01*
X334928Y180200D01*
X335128D01*
X334928Y180000D01*
X335128Y179800D01*
X334928D01*
X334728Y179600D01*
Y197200D02*
X334328Y197600D01*
X333928D01*
X334328Y198000D01*
X333928Y198400D01*
X334328D01*
X334728Y198800D01*
X335128Y198400D01*
X335528D01*
X335128Y198000D01*
X335528Y197600D01*
X335128D01*
X334728Y197200D01*
Y197600D02*
X334528Y197800D01*
X334328D01*
X334528Y198000D01*
X334328Y198200D01*
X334528D01*
X334728Y198400D01*
X334928Y198200D01*
X335128D01*
X334928Y198000D01*
X335128Y197800D01*
X334928D01*
X334728Y197600D01*
X182728Y305200D02*
X182328Y305600D01*
X181928D01*
X182328Y306000D01*
X181928Y306400D01*
X182328D01*
X182728Y306800D01*
X183128Y306400D01*
X183528D01*
X183128Y306000D01*
X183528Y305600D01*
X183128D01*
X182728Y305200D01*
Y305600D02*
X182528Y305800D01*
X182328D01*
X182528Y306000D01*
X182328Y306200D01*
X182528D01*
X182728Y306400D01*
X182928Y306200D01*
X183128D01*
X182928Y306000D01*
X183128Y305800D01*
X182928D01*
X182728Y305600D01*
X170728Y305200D02*
X170328Y305600D01*
X169928D01*
X170328Y306000D01*
X169928Y306400D01*
X170328D01*
X170728Y306800D01*
X171128Y306400D01*
X171528D01*
X171128Y306000D01*
X171528Y305600D01*
X171128D01*
X170728Y305200D01*
Y305600D02*
X170528Y305800D01*
X170328D01*
X170528Y306000D01*
X170328Y306200D01*
X170528D01*
X170728Y306400D01*
X170928Y306200D01*
X171128D01*
X170928Y306000D01*
X171128Y305800D01*
X170928D01*
X170728Y305600D01*
Y317200D02*
X170328Y317600D01*
X169928D01*
X170328Y318000D01*
X169928Y318400D01*
X170328D01*
X170728Y318800D01*
X171128Y318400D01*
X171528D01*
X171128Y318000D01*
X171528Y317600D01*
X171128D01*
X170728Y317200D01*
Y317600D02*
X170528Y317800D01*
X170328D01*
X170528Y318000D01*
X170328Y318200D01*
X170528D01*
X170728Y318400D01*
X170928Y318200D01*
X171128D01*
X170928Y318000D01*
X171128Y317800D01*
X170928D01*
X170728Y317600D01*
X182728Y317200D02*
X182328Y317600D01*
X181928D01*
X182328Y318000D01*
X181928Y318400D01*
X182328D01*
X182728Y318800D01*
X183128Y318400D01*
X183528D01*
X183128Y318000D01*
X183528Y317600D01*
X183128D01*
X182728Y317200D01*
Y317600D02*
X182528Y317800D01*
X182328D01*
X182528Y318000D01*
X182328Y318200D01*
X182528D01*
X182728Y318400D01*
X182928Y318200D01*
X183128D01*
X182928Y318000D01*
X183128Y317800D01*
X182928D01*
X182728Y317600D01*
X170728Y257200D02*
X170328Y257600D01*
X169928D01*
X170328Y258000D01*
X169928Y258400D01*
X170328D01*
X170728Y258800D01*
X171128Y258400D01*
X171528D01*
X171128Y258000D01*
X171528Y257600D01*
X171128D01*
X170728Y257200D01*
Y257600D02*
X170528Y257800D01*
X170328D01*
X170528Y258000D01*
X170328Y258200D01*
X170528D01*
X170728Y258400D01*
X170928Y258200D01*
X171128D01*
X170928Y258000D01*
X171128Y257800D01*
X170928D01*
X170728Y257600D01*
X180728Y257200D02*
X180328Y257600D01*
X179928D01*
X180328Y258000D01*
X179928Y258400D01*
X180328D01*
X180728Y258800D01*
X181128Y258400D01*
X181528D01*
X181128Y258000D01*
X181528Y257600D01*
X181128D01*
X180728Y257200D01*
Y257600D02*
X180528Y257800D01*
X180328D01*
X180528Y258000D01*
X180328Y258200D01*
X180528D01*
X180728Y258400D01*
X180928Y258200D01*
X181128D01*
X180928Y258000D01*
X181128Y257800D01*
X180928D01*
X180728Y257600D01*
X170728Y269200D02*
X170328Y269600D01*
X169928D01*
X170328Y270000D01*
X169928Y270400D01*
X170328D01*
X170728Y270800D01*
X171128Y270400D01*
X171528D01*
X171128Y270000D01*
X171528Y269600D01*
X171128D01*
X170728Y269200D01*
Y269600D02*
X170528Y269800D01*
X170328D01*
X170528Y270000D01*
X170328Y270200D01*
X170528D01*
X170728Y270400D01*
X170928Y270200D01*
X171128D01*
X170928Y270000D01*
X171128Y269800D01*
X170928D01*
X170728Y269600D01*
X180728Y269200D02*
X180328Y269600D01*
X179928D01*
X180328Y270000D01*
X179928Y270400D01*
X180328D01*
X180728Y270800D01*
X181128Y270400D01*
X181528D01*
X181128Y270000D01*
X181528Y269600D01*
X181128D01*
X180728Y269200D01*
Y269600D02*
X180528Y269800D01*
X180328D01*
X180528Y270000D01*
X180328Y270200D01*
X180528D01*
X180728Y270400D01*
X180928Y270200D01*
X181128D01*
X180928Y270000D01*
X181128Y269800D01*
X180928D01*
X180728Y269600D01*
X178728Y133200D02*
X178328Y133600D01*
X177928D01*
X178328Y134000D01*
X177928Y134400D01*
X178328D01*
X178728Y134800D01*
X179128Y134400D01*
X179528D01*
X179128Y134000D01*
X179528Y133600D01*
X179128D01*
X178728Y133200D01*
Y133600D02*
X178528Y133800D01*
X178328D01*
X178528Y134000D01*
X178328Y134200D01*
X178528D01*
X178728Y134400D01*
X178928Y134200D01*
X179128D01*
X178928Y134000D01*
X179128Y133800D01*
X178928D01*
X178728Y133600D01*
Y145200D02*
X178328Y145600D01*
X177928D01*
X178328Y146000D01*
X177928Y146400D01*
X178328D01*
X178728Y146800D01*
X179128Y146400D01*
X179528D01*
X179128Y146000D01*
X179528Y145600D01*
X179128D01*
X178728Y145200D01*
Y145600D02*
X178528Y145800D01*
X178328D01*
X178528Y146000D01*
X178328Y146200D01*
X178528D01*
X178728Y146400D01*
X178928Y146200D01*
X179128D01*
X178928Y146000D01*
X179128Y145800D01*
X178928D01*
X178728Y145600D01*
X194728Y133200D02*
X194328Y133600D01*
X193928D01*
X194328Y134000D01*
X193928Y134400D01*
X194328D01*
X194728Y134800D01*
X195128Y134400D01*
X195528D01*
X195128Y134000D01*
X195528Y133600D01*
X195128D01*
X194728Y133200D01*
Y133600D02*
X194528Y133800D01*
X194328D01*
X194528Y134000D01*
X194328Y134200D01*
X194528D01*
X194728Y134400D01*
X194928Y134200D01*
X195128D01*
X194928Y134000D01*
X195128Y133800D01*
X194928D01*
X194728Y133600D01*
Y145200D02*
X194328Y145600D01*
X193928D01*
X194328Y146000D01*
X193928Y146400D01*
X194328D01*
X194728Y146800D01*
X195128Y146400D01*
X195528D01*
X195128Y146000D01*
X195528Y145600D01*
X195128D01*
X194728Y145200D01*
Y145600D02*
X194528Y145800D01*
X194328D01*
X194528Y146000D01*
X194328Y146200D01*
X194528D01*
X194728Y146400D01*
X194928Y146200D01*
X195128D01*
X194928Y146000D01*
X195128Y145800D01*
X194928D01*
X194728Y145600D01*
X202728Y77200D02*
X202328Y77600D01*
X201928D01*
X202328Y78000D01*
X201928Y78400D01*
X202328D01*
X202728Y78800D01*
X203128Y78400D01*
X203528D01*
X203128Y78000D01*
X203528Y77600D01*
X203128D01*
X202728Y77200D01*
Y77600D02*
X202528Y77800D01*
X202328D01*
X202528Y78000D01*
X202328Y78200D01*
X202528D01*
X202728Y78400D01*
X202928Y78200D01*
X203128D01*
X202928Y78000D01*
X203128Y77800D01*
X202928D01*
X202728Y77600D01*
X210728Y77200D02*
X210328Y77600D01*
X209928D01*
X210328Y78000D01*
X209928Y78400D01*
X210328D01*
X210728Y78800D01*
X211128Y78400D01*
X211528D01*
X211128Y78000D01*
X211528Y77600D01*
X211128D01*
X210728Y77200D01*
Y77600D02*
X210528Y77800D01*
X210328D01*
X210528Y78000D01*
X210328Y78200D01*
X210528D01*
X210728Y78400D01*
X210928Y78200D01*
X211128D01*
X210928Y78000D01*
X211128Y77800D01*
X210928D01*
X210728Y77600D01*
X228728Y87200D02*
X228328Y87600D01*
X227928D01*
X228328Y88000D01*
X227928Y88400D01*
X228328D01*
X228728Y88800D01*
X229128Y88400D01*
X229528D01*
X229128Y88000D01*
X229528Y87600D01*
X229128D01*
X228728Y87200D01*
Y87600D02*
X228528Y87800D01*
X228328D01*
X228528Y88000D01*
X228328Y88200D01*
X228528D01*
X228728Y88400D01*
X228928Y88200D01*
X229128D01*
X228928Y88000D01*
X229128Y87800D01*
X228928D01*
X228728Y87600D01*
X238728Y87200D02*
X238328Y87600D01*
X237928D01*
X238328Y88000D01*
X237928Y88400D01*
X238328D01*
X238728Y88800D01*
X239128Y88400D01*
X239528D01*
X239128Y88000D01*
X239528Y87600D01*
X239128D01*
X238728Y87200D01*
Y87600D02*
X238528Y87800D01*
X238328D01*
X238528Y88000D01*
X238328Y88200D01*
X238528D01*
X238728Y88400D01*
X238928Y88200D01*
X239128D01*
X238928Y88000D01*
X239128Y87800D01*
X238928D01*
X238728Y87600D01*
X280728Y47200D02*
X280328Y47600D01*
X279928D01*
X280328Y48000D01*
X279928Y48400D01*
X280328D01*
X280728Y48800D01*
X281128Y48400D01*
X281528D01*
X281128Y48000D01*
X281528Y47600D01*
X281128D01*
X280728Y47200D01*
Y47600D02*
X280528Y47800D01*
X280328D01*
X280528Y48000D01*
X280328Y48200D01*
X280528D01*
X280728Y48400D01*
X280928Y48200D01*
X281128D01*
X280928Y48000D01*
X281128Y47800D01*
X280928D01*
X280728Y47600D01*
X290728Y47200D02*
X290328Y47600D01*
X289928D01*
X290328Y48000D01*
X289928Y48400D01*
X290328D01*
X290728Y48800D01*
X291128Y48400D01*
X291528D01*
X291128Y48000D01*
X291528Y47600D01*
X291128D01*
X290728Y47200D01*
Y47600D02*
X290528Y47800D01*
X290328D01*
X290528Y48000D01*
X290328Y48200D01*
X290528D01*
X290728Y48400D01*
X290928Y48200D01*
X291128D01*
X290928Y48000D01*
X291128Y47800D01*
X290928D01*
X290728Y47600D01*
Y55200D02*
X290328Y55600D01*
X289928D01*
X290328Y56000D01*
X289928Y56400D01*
X290328D01*
X290728Y56800D01*
X291128Y56400D01*
X291528D01*
X291128Y56000D01*
X291528Y55600D01*
X291128D01*
X290728Y55200D01*
Y55600D02*
X290528Y55800D01*
X290328D01*
X290528Y56000D01*
X290328Y56200D01*
X290528D01*
X290728Y56400D01*
X290928Y56200D01*
X291128D01*
X290928Y56000D01*
X291128Y55800D01*
X290928D01*
X290728Y55600D01*
X280728Y55200D02*
X280328Y55600D01*
X279928D01*
X280328Y56000D01*
X279928Y56400D01*
X280328D01*
X280728Y56800D01*
X281128Y56400D01*
X281528D01*
X281128Y56000D01*
X281528Y55600D01*
X281128D01*
X280728Y55200D01*
Y55600D02*
X280528Y55800D01*
X280328D01*
X280528Y56000D01*
X280328Y56200D01*
X280528D01*
X280728Y56400D01*
X280928Y56200D01*
X281128D01*
X280928Y56000D01*
X281128Y55800D01*
X280928D01*
X280728Y55600D01*
X189160Y214582D02*
X188760Y215382D01*
X189160Y216182D01*
X188360Y215782D01*
X187560Y216182D01*
X187960Y215382D01*
X187560Y214582D01*
X188360Y214982D01*
X189160Y214582D01*
X188760Y214982D02*
X188560Y215382D01*
X188760Y215782D01*
X188360Y215582D01*
X187960Y215782D01*
X188160Y215382D01*
X187960Y214982D01*
X188360Y215182D01*
X188760Y214982D01*
D91*
X324464Y188976D02*
G03*
X324464Y188976I800J0D01*
G01*
X344149D02*
G03*
X344149Y188976I800J0D01*
G01*
X353529Y275452D02*
G03*
X353529Y275452I800J0D01*
G01*
X343687D02*
G03*
X343687Y275452I800J0D01*
G01*
X264560Y55382D02*
G03*
X264560Y55382I800J0D01*
G01*
X254560D02*
G03*
X254560Y55382I800J0D01*
G01*
X74960Y206882D02*
G03*
X74960Y206882I800J0D01*
G01*
X84802D02*
G03*
X84802Y206882I800J0D01*
G01*
X161612Y38900D02*
G03*
X161612Y38900I800J0D01*
G01*
X171454D02*
G03*
X171454Y38900I800J0D01*
G01*
X179328D02*
G03*
X179328Y38900I800J0D01*
G01*
X189171D02*
G03*
X189171Y38900I800J0D01*
G01*
X-12150Y370079D02*
G03*
X-12150Y370079I800J0D01*
G01*
Y0D02*
G03*
X-12150Y0I800J0D01*
G01*
X357928D02*
G03*
X357928Y0I800J0D01*
G01*
Y370079D02*
G03*
X357928Y370079I800J0D01*
G01*
D92*
X-11750D02*
G03*
X-11750Y370079I400J0D01*
G01*
Y0D02*
G03*
X-11750Y0I400J0D01*
G01*
X358328D02*
G03*
X358328Y0I400J0D01*
G01*
Y370079D02*
G03*
X358328Y370079I400J0D01*
G01*
M02*
