M48
;Layer_Color=9474304
;FILE_FORMAT=2:5
INCH,LZ
;TYPE=PLATED
T1F00S00C0.01200
T2F00S00C0.01400
T3F00S00C0.02756
T4F00S00C0.03150
T6F00S00C0.03200
T7F00S00C0.03543
T8F00S00C0.04331
T9F00S00C0.05512
T12F00S00C0.10236
T13F00S00C0.11811
%
T01
X0170369Y0215382
T02
X0072Y-0006
Y0
X0112
Y0014
X0162Y001
X0198
X022Y002
Y0034
X0212Y0088
X0156Y0078
X0148
X013Y0088
X012
X0078Y0056
Y0048
X0068
Y0056
X0222Y0088
X0254Y0082
Y01
X0282
X0356Y0086
Y0074
X0368
Y0086
X0372Y0024
Y0014
X036
Y0024
X0308Y0122
X0288
X0248
X0238Y0154
X0262Y0174
Y0186
X0292Y0176
Y0166
X0302
Y0176
X0354Y0184
X0368
Y0198
X0354
X0196Y0202
X0184
Y0214
X0196
X018Y0146
Y0134
X0164
Y0146
X008Y0124
X0074Y0176
Y0202
X0122Y0236
Y0248
X0062Y0202
Y0176
X0024Y018
Y0198
X002Y0154
X0014Y0104
X0064Y0124
X0062Y0342
Y035
X0038Y0326
X0028
X00655
X0176Y0318
Y0306
X0188
Y0318
Y027
X0178
Y0258
X0188
X0202Y0368
X0166
X0266
X0326
X0276Y0286
X0264
T03
X0119168Y0025982
Y0065982
X0273622Y0077087
Y0037087
X0292992Y0015748
Y0001969
X0332992
Y0015748
X0253468Y000802
X0243468Y0012744
X0233469Y000802
X0320468Y0111882
X0360469
Y0162382
X0320468
X0122047Y0167008
Y0207008
X0086929Y0188976
X0085969Y0224882
X0045968
X0046929Y0188976
X0071469Y0299382
Y0310382
Y0321382
Y0332382
X0111469
Y0321382
Y0310382
Y0299382
T04
X0093369Y0055382
X0103368
X0168757Y00389
X01786
X0186474
X0196317
X0273126Y0206882
X0282968
X0033465Y0188976
X001378
X0014242Y0275452
X0004399
T06
X0250969Y0346882
X0260968
X0270969
X0280968
X0311968
X0321969
X0331968
X0341968
T07
X0003937Y0025433
X0003937Y0035433
Y0045433
X0021654
Y0035433
Y0025433
Y0068898
Y0078898
Y0088898
X0003937Y008874
Y007874
X0003937Y006874
X0053743Y007555
X0063743Y007555
Y009105
X0053743
X0073743
Y007555
X0303261Y0088383
X0323261
Y0031296
X0313261
X0303261
X0330469Y0128882
X0340469
X0350468
Y0144382
X0340469
X0330469
X0308555Y0215724
Y0225724
Y0235724
Y0245724
Y0255724
X0353969Y0254882
Y0244882
Y0234882
Y0224882
Y0214882
X0248555Y0215724
Y0225724
Y0235724
Y0245724
Y0255724
X0248468Y0185882
Y0175882
X0059213Y0261811
X0049213
X0039213
X0029213
X0034969Y0286882
X0044969
X0054969
X0019685Y0304055
Y0314055
Y0338504
Y0348504
X0077969Y0346882
X0087968
X0097969
X0107968
X0084969Y0286882
X0074968
X0064969
X0069213Y0261811
X0079213Y0261811
X0089213
X0248555Y0265724
Y0275724
Y0285724
X0308555
Y0275724
Y0265724
X0353969Y0264882
X0341968Y0324382
X0331968
X0321969
X0311968
T08
X0049968Y0302382
Y0352382
T09
X0152598Y0097165
X0212598
Y0107165
Y0117165
Y0127165
Y0137165
Y0147165
Y0157165
Y0167165
Y0177165
Y0187165
Y0197165
Y0207165
Y0217165
Y0227165
Y0237165
Y0247165
Y0257165
X0152598
Y0247165
Y0237165
Y0227165
Y0217165
Y0207165
Y0197165
Y0187165
Y0177165
Y0167165
Y0157165
Y0147165
Y0137165
Y0127165
Y0117165
Y0107165
Y0267165
Y0277165
Y0287165
X0212598
Y0277165
Y0267165
T12
X0104055Y012315
X001437
T13
X0Y0
X0370079
X0Y0370079
X0370079
M30
